<?xml version="1.0" standalone="no"?>
<!DOCTYPE svg PUBLIC "-//W3C//DTD SVG 20010904//EN"
 "http://www.w3.org/TR/2001/REC-SVG-20010904/DTD/svg10.dtd">
<svg version="1.0" xmlns="http://www.w3.org/2000/svg"
 width="500.000000pt" height="500.000000pt" viewBox="0 0 500.000000 500.000000"
 preserveAspectRatio="xMidYMid meet">

<g transform="translate(0.000000,500.000000) scale(0.100000,-0.100000)"
fill="#000000" stroke="none">
<path d="M1227 4603 c-12 -21 -293 -503 -623 -1072 l-601 -1034 38 -66 c21
-36 301 -518 623 -1071 l584 -1005 1252 0 1252 0 250 430 c137 237 285 491
328 565 43 74 209 360 369 635 160 275 291 507 290 515 0 8 -278 492 -617
1075 l-617 1060 -1253 3 -1253 2 -22 -37z m3109 -1040 c335 -575 610 -1054
611 -1062 2 -9 -271 -486 -605 -1061 l-609 -1045 -1233 0 -1233 0 -608 1045
c-335 575 -608 1052 -606 1061 1 8 276 487 611 1062 l608 1047 1228 0 1228 0
608 -1047z"/>
<path d="M1390 2485 l0 -285 60 0 60 0 0 125 0 126 113 -3 112 -3 3 -122 3
-123 59 0 60 0 0 285 0 285 -60 0 -60 0 0 -110 0 -110 -115 0 -115 0 0 110 0
110 -60 0 -60 0 0 -285z"/>
<path d="M2073 2621 c-64 -30 -97 -87 -101 -177 -8 -157 64 -247 198 -248 73
-1 103 8 145 46 47 41 64 75 71 145 11 102 -27 188 -101 230 -52 30 -151 31
-212 4z m161 -94 c43 -43 46 -159 4 -212 -20 -25 -64 -33 -103 -19 -28 11 -45
60 -45 129 0 60 3 69 29 96 37 37 82 39 115 6z"/>
<path d="M2490 2420 l0 -220 60 0 60 0 0 141 c0 87 4 149 12 162 16 31 39 46
68 47 60 0 70 -30 70 -204 l0 -146 59 0 60 0 3 151 3 151 28 24 c32 27 64 31
93 10 17 -13 19 -30 22 -175 l3 -161 60 0 59 0 0 165 c0 230 -17 266 -134 273
-65 4 -108 -9 -136 -43 -12 -14 -16 -13 -41 11 -22 21 -41 28 -83 32 -69 6
-96 -1 -134 -33 l-30 -25 -7 30 c-6 28 -10 30 -51 30 l-44 0 0 -220z"/>
<path d="M3347 2619 c-61 -32 -90 -86 -95 -178 -7 -120 21 -181 101 -223 50
-26 169 -31 230 -10 35 13 37 16 37 58 0 24 -1 44 -2 44 -2 0 -25 -7 -52 -15
-110 -33 -196 -1 -196 74 0 20 5 21 140 21 l140 0 0 43 c0 91 -41 166 -107
193 -49 21 -150 17 -196 -7z m157 -81 c13 -13 27 -33 31 -45 6 -23 5 -23 -79
-23 -92 0 -96 3 -71 50 24 46 78 54 119 18z"/>
</g>
</svg>
