<svg id="svg" version="1.1" xmlns="http://www.w3.org/2000/svg" xmlns:xlink="http://www.w3.org/1999/xlink" width="400" height="400" viewBox="0, 0, 400,400"><g id="svgg"><path id="path0" d="M243.949 184.900 C 243.451 185.615,242.449 186.907,241.722 187.772 C 240.011 189.806,240.050 190.000,242.169 190.000 C 243.992 190.000,244.744 189.558,249.500 185.687 C 251.820 183.799,251.680 183.600,248.027 183.600 C 244.900 183.600,244.841 183.619,243.949 184.900 M116.895 199.882 L 117.000 215.800 118.355 215.929 C 120.436 216.128,121.483 215.721,121.763 214.603 C 122.052 213.455,123.219 213.259,124.019 214.223 C 124.885 215.267,127.176 216.000,129.571 216.000 C 140.248 216.000,141.248 193.445,130.600 192.787 C 127.351 192.586,126.468 192.795,124.627 194.200 C 123.618 194.970,122.703 195.600,122.593 195.600 C 122.483 195.600,122.440 193.035,122.497 189.900 L 122.600 184.200 119.695 184.082 L 116.791 183.965 116.895 199.882 M279.823 184.889 C 277.801 187.775,281.732 191.064,284.711 188.977 C 285.855 188.176,285.948 185.639,284.869 184.662 C 283.726 183.628,280.608 183.768,279.823 184.889 M67.389 186.084 C 67.280 186.370,67.237 193.173,67.295 201.202 L 67.400 215.800 76.400 215.800 L 85.400 215.800 85.400 213.400 L 85.400 211.000 79.506 210.889 L 73.611 210.779 73.506 198.289 L 73.400 185.800 70.494 185.682 C 68.393 185.597,67.533 185.708,67.389 186.084 M217.596 189.810 C 217.158 190.831,216.800 191.832,216.800 192.034 C 216.800 192.236,215.891 193.055,214.779 193.853 C 212.305 195.631,212.163 196.880,214.400 197.200 L 215.800 197.400 216.000 204.400 C 216.294 214.693,217.149 215.996,223.611 215.999 C 227.951 216.000,228.800 215.506,228.800 212.979 L 228.800 211.203 226.166 211.301 C 222.135 211.452,221.950 211.096,222.090 203.443 L 222.200 197.400 225.300 197.283 L 228.400 197.166 228.400 194.983 L 228.400 192.800 225.220 192.800 L 222.040 192.800 221.920 190.500 L 221.800 188.200 220.096 188.077 C 218.413 187.955,218.381 187.977,217.596 189.810 M97.000 192.780 C 92.471 193.496,91.576 194.283,92.674 196.586 C 93.416 198.143,93.839 198.239,96.200 197.388 C 100.054 196.000,103.209 196.907,103.794 199.573 C 104.166 201.264,103.822 201.597,101.676 201.621 C 99.035 201.651,94.458 202.532,92.800 203.330 C 88.524 205.388,88.338 212.667,92.496 215.202 C 95.016 216.739,100.775 216.158,102.396 214.205 C 103.689 212.646,104.330 212.694,105.207 214.414 C 106.002 215.972,106.113 216.039,107.719 215.922 L 109.400 215.800 109.498 206.800 C 109.637 193.902,107.201 191.169,97.000 192.780 M151.200 192.788 C 140.755 194.240,138.906 211.045,148.728 215.255 C 156.874 218.746,164.205 213.592,164.167 204.400 C 164.131 195.835,159.448 191.642,151.200 192.788 M181.400 192.771 C 179.717 193.178,178.780 193.742,177.425 195.166 C 175.869 196.800,175.354 196.723,175.047 194.807 C 174.771 193.077,173.982 192.614,171.748 192.869 L 170.600 193.000 170.600 204.400 L 170.600 215.800 173.200 215.800 L 175.800 215.800 176.000 209.000 C 176.267 199.937,176.965 198.663,181.955 198.142 C 184.188 197.908,184.335 197.827,184.561 196.697 C 185.173 193.636,184.551 192.136,182.800 192.446 C 182.690 192.466,182.060 192.612,181.400 192.771 M196.400 192.652 C 191.755 193.182,190.097 194.244,191.034 196.088 C 192.188 198.361,192.241 198.384,194.417 197.557 C 198.889 195.858,202.400 197.012,202.400 200.182 L 202.400 201.600 200.500 201.621 C 190.559 201.732,185.712 206.222,188.753 212.502 C 190.800 216.732,198.368 217.395,201.762 213.643 C 202.810 212.484,203.019 212.564,203.753 214.400 C 204.409 216.038,205.805 216.510,207.767 215.757 C 208.483 215.483,208.688 201.871,208.028 198.457 C 207.193 194.134,202.771 191.927,196.400 192.652 M241.200 192.807 C 231.039 194.322,228.853 210.561,238.215 214.990 C 246.286 218.808,254.400 213.494,254.400 204.389 C 254.400 196.299,249.081 191.631,241.200 192.807 M271.400 192.771 C 269.613 193.203,268.646 193.814,267.267 195.385 C 265.703 197.167,265.733 197.173,265.070 194.900 L 264.516 193.000 262.358 193.000 L 260.200 193.000 260.200 204.400 L 260.200 215.800 263.000 215.800 L 265.800 215.800 266.008 208.800 C 266.275 199.807,266.940 198.658,272.193 198.116 L 274.297 197.899 274.550 195.474 C 274.873 192.388,274.459 192.033,271.400 192.771 M300.000 192.788 C 289.555 194.240,287.706 211.045,297.528 215.255 C 305.674 218.746,313.005 213.592,312.967 204.400 C 312.931 195.835,308.248 191.642,300.000 192.788 M324.000 192.777 C 318.743 193.540,316.154 197.562,318.243 201.720 C 319.238 203.700,319.986 204.207,325.600 206.708 C 328.686 208.083,329.697 210.126,327.911 211.377 C 326.444 212.405,324.034 212.197,318.478 210.566 C 316.671 210.035,317.374 214.779,319.200 215.436 C 323.499 216.982,331.140 215.813,333.269 213.283 C 336.698 209.207,334.817 205.195,327.884 201.800 C 321.066 198.461,323.205 194.829,330.383 197.557 C 332.602 198.400,332.728 198.338,333.728 195.924 C 334.434 194.220,334.264 193.988,331.800 193.292 C 329.652 192.685,326.201 192.458,324.000 192.777 M279.788 193.287 C 279.677 193.576,279.635 198.759,279.693 204.806 L 279.800 215.800 282.600 215.800 L 285.400 215.800 285.400 204.400 L 285.400 193.000 282.695 192.882 C 280.745 192.796,279.933 192.910,279.788 193.287 M129.756 198.037 C 131.935 199.751,132.744 204.901,131.360 208.251 C 129.536 212.668,124.400 212.447,123.171 207.898 C 121.243 200.759,125.367 194.584,129.756 198.037 M156.449 198.245 C 160.004 201.461,158.698 210.658,154.592 211.324 C 150.418 212.001,148.620 209.902,148.608 204.339 C 148.595 198.167,152.774 194.919,156.449 198.245 M246.844 198.718 C 249.741 201.961,248.500 210.183,244.967 211.158 C 240.767 212.318,238.400 209.805,238.400 204.189 C 238.400 198.046,243.367 194.828,246.844 198.718 M305.249 198.245 C 308.804 201.461,307.498 210.658,303.392 211.324 C 299.218 212.001,297.420 209.902,297.408 204.339 C 297.395 198.167,301.574 194.919,305.249 198.245 M103.520 205.280 C 105.515 207.275,102.183 211.995,98.775 211.999 C 94.350 212.003,94.599 206.130,99.055 205.400 C 99.905 205.261,100.870 205.090,101.200 205.020 C 102.470 204.751,103.057 204.817,103.520 205.280 M202.322 206.678 C 202.546 209.764,200.525 212.000,197.509 212.000 C 192.718 212.000,193.312 206.212,198.200 205.262 C 201.698 204.582,202.182 204.748,202.322 206.678 " stroke="none" fill="#842d2d" fill-rule="evenodd"></path><path id="path1" d="M101.708 32.099 C 101.366 32.536,100.490 34.006,97.595 39.000 C 90.437 51.346,90.765 50.781,87.600 56.200 C 84.718 61.135,84.492 61.523,81.200 67.200 C 79.605 69.950,77.985 72.740,77.600 73.400 C 77.215 74.060,75.595 76.850,74.000 79.600 C 70.708 85.277,70.482 85.665,67.600 90.600 C 64.718 95.535,64.492 95.923,61.200 101.600 C 59.605 104.350,57.985 107.140,57.600 107.800 C 57.215 108.460,55.595 111.250,54.000 114.000 C 50.708 119.677,50.482 120.065,47.600 125.000 C 44.718 129.935,44.492 130.323,41.200 136.000 C 39.605 138.750,37.985 141.540,37.600 142.200 C 37.215 142.860,35.595 145.650,34.000 148.400 C 30.708 154.077,30.482 154.465,27.600 159.400 C 24.718 164.335,24.492 164.723,21.200 170.400 C 19.605 173.150,17.985 175.940,17.600 176.600 C 17.215 177.260,15.595 180.050,14.000 182.800 C 10.488 188.856,10.253 189.261,7.594 193.800 C 3.608 200.608,3.814 200.048,4.716 201.626 C 5.147 202.382,6.805 205.250,8.400 208.000 C 11.692 213.677,11.918 214.065,14.800 219.000 C 15.956 220.980,17.216 223.140,17.600 223.800 C 17.984 224.460,19.244 226.620,20.400 228.600 C 21.556 230.580,22.840 232.785,23.251 233.500 C 24.720 236.050,25.539 237.465,28.400 242.400 C 31.692 248.077,31.918 248.465,34.800 253.400 C 35.956 255.380,37.216 257.540,37.600 258.200 C 37.984 258.860,39.244 261.020,40.400 263.000 C 41.556 264.980,42.840 267.185,43.251 267.900 C 44.720 270.450,45.539 271.865,48.400 276.800 C 51.692 282.477,51.918 282.865,54.800 287.800 C 55.956 289.780,57.216 291.940,57.600 292.600 C 57.984 293.260,59.244 295.420,60.400 297.400 C 61.556 299.380,62.840 301.585,63.251 302.300 C 64.720 304.850,65.539 306.265,68.400 311.200 C 71.692 316.877,71.918 317.265,74.800 322.200 C 75.956 324.180,77.216 326.340,77.600 327.000 C 77.984 327.660,79.244 329.820,80.400 331.800 C 81.556 333.780,82.840 335.985,83.251 336.700 C 84.720 339.250,85.539 340.665,88.400 345.600 C 91.692 351.277,91.918 351.665,94.800 356.600 C 95.956 358.580,97.214 360.740,97.595 361.400 C 97.975 362.060,99.085 363.950,100.061 365.600 L 101.836 368.600 200.000 368.600 L 298.164 368.600 299.939 365.600 C 300.915 363.950,302.025 362.060,302.405 361.400 C 302.786 360.740,304.044 358.580,305.200 356.600 C 306.356 354.620,307.618 352.460,308.003 351.800 C 308.388 351.140,310.366 347.720,312.400 344.200 C 314.434 340.680,316.412 337.260,316.797 336.600 C 317.182 335.940,318.444 333.780,319.600 331.800 C 320.756 329.820,322.016 327.660,322.400 327.000 C 322.784 326.340,324.044 324.180,325.200 322.200 C 326.356 320.220,327.618 318.060,328.003 317.400 C 328.388 316.740,330.366 313.320,332.400 309.800 C 334.434 306.280,336.412 302.860,336.797 302.200 C 337.182 301.540,338.444 299.380,339.600 297.400 C 340.756 295.420,342.016 293.260,342.400 292.600 C 342.784 291.940,344.044 289.780,345.200 287.800 C 346.356 285.820,347.618 283.660,348.003 283.000 C 348.388 282.340,350.366 278.920,352.400 275.400 C 354.434 271.880,356.412 268.460,356.797 267.800 C 357.182 267.140,358.444 264.980,359.600 263.000 C 360.756 261.020,362.016 258.860,362.400 258.200 C 362.784 257.540,364.044 255.380,365.200 253.400 C 366.356 251.420,367.618 249.260,368.003 248.600 C 368.388 247.940,370.366 244.520,372.400 241.000 C 374.434 237.480,376.412 234.060,376.797 233.400 C 377.182 232.740,378.444 230.580,379.600 228.600 C 380.756 226.620,382.016 224.460,382.400 223.800 C 382.784 223.140,384.044 220.980,385.200 219.000 C 386.356 217.020,387.618 214.860,388.003 214.200 C 388.388 213.540,390.357 210.125,392.379 206.612 L 396.055 200.224 395.284 198.812 C 394.860 198.035,393.565 195.780,392.406 193.800 C 389.747 189.261,389.512 188.856,386.000 182.800 C 384.405 180.050,382.785 177.260,382.400 176.600 C 382.015 175.940,380.395 173.150,378.800 170.400 C 375.508 164.723,375.282 164.335,372.400 159.400 C 369.518 154.465,369.292 154.077,366.000 148.400 C 364.405 145.650,362.785 142.860,362.400 142.200 C 362.015 141.540,360.395 138.750,358.800 136.000 C 355.508 130.323,355.282 129.935,352.400 125.000 C 349.518 120.065,349.292 119.677,346.000 114.000 C 344.405 111.250,342.785 108.460,342.400 107.800 C 342.015 107.140,340.395 104.350,338.800 101.600 C 335.508 95.923,335.282 95.535,332.400 90.600 C 329.518 85.665,329.292 85.277,326.000 79.600 C 324.405 76.850,322.785 74.060,322.400 73.400 C 322.015 72.740,320.395 69.950,318.800 67.200 C 315.508 61.523,315.282 61.135,312.400 56.200 C 309.423 51.103,305.430 44.231,302.407 39.000 C 302.026 38.340,300.915 36.450,299.939 34.800 L 298.164 31.800 200.132 31.699 C 122.001 31.619,102.020 31.700,101.708 32.099 M122.567 183.443 C 123.101 183.647,123.200 184.527,123.200 189.043 C 123.200 191.989,123.282 194.400,123.382 194.400 C 123.482 194.400,124.221 193.955,125.022 193.411 C 132.851 188.098,141.124 198.323,137.922 209.354 C 135.974 216.067,128.937 218.769,123.842 214.762 C 123.246 214.293,122.702 213.974,122.633 214.054 C 122.565 214.134,122.298 214.605,122.040 215.100 C 121.628 215.892,121.262 216.000,118.986 216.000 L 116.400 216.000 116.400 199.867 C 116.400 190.993,116.520 183.613,116.667 183.467 C 117.000 183.133,121.711 183.114,122.567 183.443 M252.000 183.517 C 252.000 183.953,249.040 186.749,246.464 188.745 C 244.563 190.218,244.090 190.400,242.164 190.400 C 239.477 190.400,239.371 189.870,241.538 187.256 C 242.384 186.235,243.395 184.905,243.784 184.300 C 244.486 183.210,252.000 182.494,252.000 183.517 M284.364 183.781 C 287.894 185.607,286.008 190.428,281.976 189.887 C 279.941 189.615,279.286 189.064,278.966 187.358 C 278.403 184.357,281.504 182.302,284.364 183.781 M73.520 185.680 C 73.872 186.032,74.000 189.384,74.000 198.270 L 74.000 210.379 80.100 210.490 L 86.200 210.600 86.318 213.300 L 86.437 216.000 76.818 216.000 L 67.200 216.000 67.200 200.867 C 67.200 192.543,67.320 185.613,67.467 185.467 C 67.937 184.996,73.015 185.175,73.520 185.680 M222.319 190.084 L 222.439 192.367 225.519 192.484 L 228.600 192.600 228.719 195.083 L 228.837 197.566 225.719 197.683 L 222.600 197.800 222.489 203.689 C 222.351 211.071,223.260 212.374,227.441 210.784 C 228.830 210.256,229.186 210.756,229.194 213.251 C 229.203 216.081,225.661 217.490,221.138 216.455 C 216.493 215.393,215.852 214.067,215.600 205.000 L 215.400 197.800 214.100 197.675 C 211.981 197.470,212.163 194.809,214.382 193.562 C 215.901 192.708,216.167 192.293,217.640 188.479 C 217.959 187.655,218.218 187.571,220.098 187.679 L 222.200 187.800 222.319 190.084 M104.294 192.500 C 109.334 193.822,110.542 197.084,110.328 208.800 L 110.200 215.800 107.605 215.800 C 105.326 215.800,104.993 215.703,104.867 215.000 C 104.606 213.556,104.089 213.491,102.534 214.710 C 97.606 218.571,90.427 216.639,89.191 211.118 C 87.960 205.615,91.830 201.600,98.365 201.600 C 102.107 201.600,103.200 201.266,103.200 200.124 C 103.200 197.635,101.340 196.800,97.571 197.597 C 92.851 198.596,93.100 198.645,92.100 196.532 C 90.985 194.177,91.252 193.814,94.860 192.783 C 97.875 191.921,101.656 191.808,104.294 192.500 M158.428 193.081 C 168.442 197.521,166.587 214.161,155.828 216.394 C 147.803 218.060,142.265 213.094,142.230 204.200 C 142.191 194.569,149.880 189.291,158.428 193.081 M185.001 192.401 C 185.137 192.621,185.124 194.061,184.972 195.601 L 184.697 198.400 182.848 198.419 C 177.691 198.473,176.654 200.194,176.461 209.020 L 176.309 216.000 172.955 216.000 L 169.600 216.000 169.600 204.443 C 169.600 191.595,169.413 192.400,172.400 192.400 C 174.433 192.400,175.200 192.732,175.200 193.610 C 175.200 195.702,176.014 196.082,177.319 194.601 C 179.089 192.593,184.212 191.126,185.001 192.401 M203.130 192.616 C 208.023 194.069,208.800 196.114,208.800 207.546 L 208.800 216.000 206.365 216.000 C 204.027 216.000,203.913 215.952,203.478 214.800 C 202.921 213.325,202.858 213.324,201.048 214.762 C 195.385 219.262,187.834 216.115,187.810 209.245 C 187.793 204.121,190.879 201.623,197.250 201.606 C 200.908 201.596,202.000 201.257,202.000 200.132 C 202.000 197.397,198.153 196.438,193.985 198.133 C 192.167 198.872,191.741 198.667,190.796 196.591 C 189.754 194.304,190.013 193.825,192.725 193.012 C 193.976 192.638,195.180 192.271,195.400 192.197 C 196.534 191.818,201.313 192.077,203.130 192.616 M248.945 193.355 C 256.794 197.196,256.869 211.351,249.061 215.402 C 242.519 218.796,234.672 215.567,232.436 208.562 C 228.994 197.777,239.050 188.514,248.945 193.355 M275.127 193.991 C 275.389 197.665,275.017 198.397,272.882 198.419 C 267.672 198.472,266.634 200.193,266.474 209.044 L 266.348 216.032 263.074 215.916 L 259.800 215.800 259.694 204.649 C 259.572 191.950,259.490 192.302,262.551 192.481 C 264.627 192.603,265.070 192.995,265.778 195.331 C 265.973 195.977,266.115 195.925,266.996 194.877 C 268.441 193.160,271.038 192.002,273.200 192.110 L 275.000 192.200 275.127 193.991 M307.228 193.081 C 317.242 197.521,315.387 214.161,304.628 216.394 C 296.603 218.060,291.065 213.094,291.030 204.200 C 290.991 194.569,298.680 189.291,307.228 193.081 M330.827 192.561 C 335.027 193.566,335.138 193.735,333.758 197.038 C 333.028 198.785,332.688 198.931,330.994 198.223 C 328.901 197.349,325.872 197.026,324.856 197.570 C 323.042 198.541,324.280 199.900,328.509 201.582 C 340.762 206.455,335.450 218.508,321.961 216.443 C 317.431 215.749,317.200 215.558,317.200 212.504 C 317.200 209.662,317.263 209.624,320.258 210.640 C 328.202 213.337,331.175 209.844,323.847 206.422 C 311.510 200.661,317.228 189.308,330.827 192.561 M285.557 192.949 C 285.880 193.337,285.982 196.756,285.906 204.649 L 285.800 215.800 282.500 215.916 L 279.200 216.032 279.200 204.483 C 279.200 198.131,279.320 192.813,279.467 192.667 C 279.991 192.142,285.084 192.378,285.557 192.949 M125.248 198.156 C 122.121 199.890,122.504 209.109,125.768 210.665 C 128.992 212.203,131.326 209.704,131.371 204.669 C 131.423 198.833,128.889 196.138,125.248 198.156 M151.308 198.085 C 149.210 199.097,148.163 203.981,149.259 207.639 C 150.899 213.112,157.107 211.967,157.792 206.066 C 158.524 199.763,155.512 196.056,151.308 198.085 M241.155 198.200 C 238.478 199.655,238.002 207.047,240.411 209.743 C 242.673 212.274,246.490 211.148,247.541 207.639 C 249.458 201.241,245.722 195.718,241.155 198.200 M300.108 198.085 C 298.010 199.097,296.963 203.981,298.059 207.639 C 299.699 213.112,305.907 211.967,306.592 206.066 C 307.324 199.763,304.312 196.056,300.108 198.085 M97.559 206.516 C 95.711 207.761,95.566 210.285,97.294 211.114 C 99.983 212.403,103.200 210.350,103.200 207.345 L 103.200 205.600 101.059 205.600 C 99.490 205.600,98.555 205.845,97.559 206.516 M196.355 206.200 C 194.063 207.445,194.016 210.370,196.274 211.228 C 198.923 212.235,201.557 210.455,201.898 207.425 L 202.104 205.600 199.752 205.616 C 198.458 205.625,196.930 205.888,196.355 206.200 " stroke="none" fill="#e3e3e3" fill-rule="evenodd"></path><path id="path2" d="M99.316 29.600 C 99.201 30.040,98.948 30.400,98.753 30.400 C 98.559 30.400,98.400 30.760,98.400 31.200 C 98.400 31.640,98.241 32.000,98.047 32.000 C 97.852 32.000,97.593 32.315,97.471 32.700 C 97.254 33.385,95.996 35.604,95.600 36.000 C 95.348 36.252,94.504 37.731,93.430 39.800 C 92.974 40.680,92.510 41.490,92.400 41.600 C 92.213 41.787,91.678 42.698,90.638 44.600 C 90.397 45.040,90.110 45.490,90.000 45.600 C 89.604 45.996,88.346 48.215,88.129 48.900 C 88.007 49.285,87.748 49.600,87.553 49.600 C 87.359 49.600,87.200 49.960,87.200 50.400 C 87.200 50.840,87.041 51.200,86.847 51.200 C 86.652 51.200,86.393 51.515,86.271 51.900 C 85.975 52.836,84.676 54.966,84.300 55.133 C 84.135 55.207,84.000 55.612,84.000 56.033 C 84.000 56.455,83.848 56.800,83.663 56.800 C 83.477 56.800,82.895 57.655,82.368 58.700 C 81.842 59.745,81.318 60.690,81.205 60.800 C 80.813 61.182,79.549 63.404,79.329 64.100 C 79.207 64.485,78.948 64.800,78.753 64.800 C 78.559 64.800,78.400 65.160,78.400 65.600 C 78.400 66.040,78.241 66.400,78.047 66.400 C 77.852 66.400,77.593 66.715,77.471 67.100 C 77.254 67.785,75.996 70.004,75.600 70.400 C 75.348 70.652,74.504 72.131,73.430 74.200 C 72.974 75.080,72.510 75.890,72.400 76.000 C 72.004 76.396,70.746 78.615,70.529 79.300 C 70.407 79.685,70.148 80.000,69.953 80.000 C 69.759 80.000,69.600 80.278,69.600 80.617 C 69.600 80.956,69.240 81.620,68.800 82.092 C 68.360 82.564,68.000 83.187,68.000 83.475 C 68.000 83.764,67.820 84.000,67.600 84.000 C 67.380 84.000,67.200 84.345,67.200 84.767 C 67.200 85.188,67.065 85.593,66.900 85.667 C 66.524 85.834,65.225 87.964,64.929 88.900 C 64.807 89.285,64.548 89.600,64.353 89.600 C 64.159 89.600,64.000 89.960,64.000 90.400 C 64.000 90.840,63.848 91.200,63.663 91.200 C 63.477 91.200,62.895 92.055,62.368 93.100 C 61.842 94.145,61.318 95.090,61.205 95.200 C 60.813 95.582,59.549 97.804,59.329 98.500 C 59.207 98.885,58.948 99.200,58.753 99.200 C 58.559 99.200,58.400 99.545,58.400 99.967 C 58.400 100.388,58.265 100.793,58.100 100.867 C 57.724 101.034,56.425 103.164,56.129 104.100 C 56.007 104.485,55.748 104.800,55.553 104.800 C 55.359 104.800,55.200 105.160,55.200 105.600 C 55.200 106.040,55.048 106.400,54.863 106.400 C 54.677 106.400,54.095 107.255,53.568 108.300 C 53.042 109.345,52.518 110.290,52.405 110.400 C 52.013 110.782,50.749 113.004,50.529 113.700 C 50.407 114.085,50.148 114.400,49.953 114.400 C 49.759 114.400,49.600 114.678,49.600 115.017 C 49.600 115.356,49.240 116.020,48.800 116.492 C 48.360 116.964,48.000 117.587,48.000 117.875 C 48.000 118.164,47.820 118.400,47.600 118.400 C 47.380 118.400,47.200 118.745,47.200 119.167 C 47.200 119.588,47.065 119.993,46.900 120.067 C 46.524 120.234,45.225 122.364,44.929 123.300 C 44.807 123.685,44.548 124.000,44.353 124.000 C 44.159 124.000,44.000 124.360,44.000 124.800 C 44.000 125.240,43.848 125.600,43.663 125.600 C 43.477 125.600,42.895 126.455,42.368 127.500 C 41.842 128.545,41.318 129.490,41.205 129.600 C 40.813 129.982,39.549 132.204,39.329 132.900 C 39.207 133.285,38.948 133.600,38.753 133.600 C 38.559 133.600,38.400 133.960,38.400 134.400 C 38.400 134.840,38.241 135.200,38.047 135.200 C 37.852 135.200,37.593 135.515,37.471 135.900 C 37.254 136.585,35.996 138.804,35.600 139.200 C 35.348 139.452,34.504 140.931,33.430 143.000 C 32.974 143.880,32.510 144.690,32.400 144.800 C 32.004 145.196,30.746 147.415,30.529 148.100 C 30.407 148.485,30.148 148.800,29.953 148.800 C 29.759 148.800,29.600 149.078,29.600 149.417 C 29.600 149.756,29.240 150.420,28.800 150.892 C 28.360 151.364,28.000 151.987,28.000 152.275 C 28.000 152.564,27.820 152.800,27.600 152.800 C 27.380 152.800,27.200 153.145,27.200 153.567 C 27.200 153.988,27.065 154.393,26.900 154.467 C 26.524 154.634,25.225 156.764,24.929 157.700 C 24.807 158.085,24.548 158.400,24.353 158.400 C 24.159 158.400,24.000 158.760,24.000 159.200 C 24.000 159.640,23.848 160.000,23.663 160.000 C 23.477 160.000,22.895 160.855,22.368 161.900 C 21.842 162.945,21.318 163.890,21.205 164.000 C 20.813 164.382,19.549 166.604,19.329 167.300 C 19.207 167.685,18.948 168.000,18.753 168.000 C 18.559 168.000,18.400 168.345,18.400 168.767 C 18.400 169.188,18.265 169.593,18.100 169.667 C 17.724 169.834,16.425 171.964,16.129 172.900 C 16.007 173.285,15.748 173.600,15.553 173.600 C 15.359 173.600,15.200 173.878,15.200 174.217 C 15.200 174.556,14.840 175.220,14.400 175.692 C 13.960 176.164,13.600 176.787,13.600 177.075 C 13.600 177.364,13.420 177.600,13.200 177.600 C 12.980 177.600,12.800 177.960,12.800 178.400 C 12.800 178.840,12.641 179.200,12.447 179.200 C 12.252 179.200,11.993 179.515,11.871 179.900 C 11.654 180.585,10.396 182.804,10.000 183.200 C 9.604 183.596,8.346 185.815,8.129 186.500 C 8.007 186.885,7.748 187.200,7.553 187.200 C 7.359 187.200,7.200 187.545,7.200 187.967 C 7.200 188.388,7.065 188.793,6.900 188.867 C 6.524 189.034,5.225 191.164,4.929 192.100 C 4.807 192.485,4.548 192.800,4.353 192.800 C 4.159 192.800,4.000 193.160,4.000 193.600 C 4.000 194.040,3.848 194.400,3.663 194.400 C 3.477 194.400,2.895 195.255,2.368 196.300 C 1.842 197.345,1.318 198.290,1.205 198.400 C 0.590 198.999,-0.027 200.541,0.263 200.754 C 0.709 201.080,1.991 203.216,2.271 204.100 C 2.393 204.485,2.652 204.800,2.847 204.800 C 3.041 204.800,3.200 205.078,3.200 205.417 C 3.200 205.756,3.560 206.420,4.000 206.892 C 4.440 207.364,4.800 207.987,4.800 208.275 C 4.800 208.564,4.980 208.800,5.200 208.800 C 5.420 208.800,5.600 209.160,5.600 209.600 C 5.600 210.040,5.780 210.400,6.000 210.400 C 6.220 210.400,6.400 210.636,6.400 210.925 C 6.400 211.213,6.760 211.836,7.200 212.308 C 7.640 212.780,8.000 213.444,8.000 213.783 C 8.000 214.122,8.146 214.400,8.325 214.400 C 8.504 214.400,8.898 215.030,9.200 215.800 C 9.502 216.570,9.896 217.200,10.075 217.200 C 10.254 217.200,10.400 217.470,10.400 217.800 C 10.400 218.130,10.580 218.400,10.800 218.400 C 11.020 218.400,11.200 218.745,11.200 219.167 C 11.200 219.588,11.335 219.993,11.500 220.067 C 11.876 220.234,13.175 222.364,13.471 223.300 C 13.593 223.685,13.852 224.000,14.047 224.000 C 14.241 224.000,14.400 224.360,14.400 224.800 C 14.400 225.240,14.580 225.600,14.800 225.600 C 15.020 225.600,15.200 225.870,15.200 226.200 C 15.200 226.530,15.380 226.800,15.600 226.800 C 15.820 226.800,16.000 227.070,16.000 227.400 C 16.000 227.730,16.180 228.000,16.400 228.000 C 16.620 228.000,16.800 228.345,16.800 228.767 C 16.800 229.188,16.935 229.593,17.100 229.667 C 17.476 229.834,18.775 231.964,19.071 232.900 C 19.193 233.285,19.452 233.600,19.647 233.600 C 19.841 233.600,20.000 233.960,20.000 234.400 C 20.000 234.840,20.180 235.200,20.400 235.200 C 20.620 235.200,20.800 235.436,20.800 235.725 C 20.800 236.013,21.160 236.636,21.600 237.108 C 22.040 237.580,22.400 238.244,22.400 238.583 C 22.400 238.922,22.559 239.200,22.753 239.200 C 22.948 239.200,23.207 239.515,23.329 239.900 C 23.546 240.585,24.804 242.804,25.200 243.200 C 25.310 243.310,25.774 244.120,26.230 245.000 C 27.320 247.101,28.151 248.552,28.405 248.800 C 28.518 248.910,29.042 249.855,29.568 250.900 C 30.095 251.945,30.677 252.800,30.863 252.800 C 31.048 252.800,31.200 253.145,31.200 253.567 C 31.200 253.988,31.335 254.393,31.500 254.467 C 31.876 254.634,33.175 256.764,33.471 257.700 C 33.593 258.085,33.852 258.400,34.047 258.400 C 34.241 258.400,34.400 258.760,34.400 259.200 C 34.400 259.640,34.580 260.000,34.800 260.000 C 35.020 260.000,35.200 260.270,35.200 260.600 C 35.200 260.930,35.380 261.200,35.600 261.200 C 35.820 261.200,36.000 261.470,36.000 261.800 C 36.000 262.130,36.180 262.400,36.400 262.400 C 36.620 262.400,36.800 262.745,36.800 263.167 C 36.800 263.588,36.935 263.993,37.100 264.067 C 37.476 264.234,38.775 266.364,39.071 267.300 C 39.193 267.685,39.452 268.000,39.647 268.000 C 39.841 268.000,40.000 268.360,40.000 268.800 C 40.000 269.240,40.159 269.600,40.353 269.600 C 40.548 269.600,40.807 269.915,40.929 270.300 C 41.146 270.985,42.404 273.204,42.800 273.600 C 43.196 273.996,44.454 276.215,44.671 276.900 C 44.793 277.285,45.052 277.600,45.247 277.600 C 45.441 277.600,45.600 277.960,45.600 278.400 C 45.600 278.840,45.780 279.200,46.000 279.200 C 46.220 279.200,46.400 279.436,46.400 279.725 C 46.400 280.013,46.760 280.636,47.200 281.108 C 47.640 281.580,48.000 282.229,48.000 282.550 C 48.000 282.871,48.135 283.193,48.300 283.267 C 48.465 283.340,49.033 284.255,49.563 285.300 C 50.092 286.345,50.677 287.200,50.863 287.200 C 51.048 287.200,51.200 287.545,51.200 287.967 C 51.200 288.388,51.335 288.793,51.500 288.867 C 51.876 289.034,53.175 291.164,53.471 292.100 C 53.593 292.485,53.852 292.800,54.047 292.800 C 54.241 292.800,54.400 293.160,54.400 293.600 C 54.400 294.040,54.580 294.400,54.800 294.400 C 55.020 294.400,55.200 294.670,55.200 295.000 C 55.200 295.330,55.380 295.600,55.600 295.600 C 55.820 295.600,56.000 295.870,56.000 296.200 C 56.000 296.530,56.180 296.800,56.400 296.800 C 56.620 296.800,56.800 297.145,56.800 297.567 C 56.800 297.988,56.935 298.393,57.100 298.467 C 57.476 298.634,58.775 300.764,59.071 301.700 C 59.193 302.085,59.452 302.400,59.647 302.400 C 59.841 302.400,60.000 302.760,60.000 303.200 C 60.000 303.640,60.159 304.000,60.353 304.000 C 60.548 304.000,60.807 304.315,60.929 304.700 C 61.225 305.636,62.524 307.766,62.900 307.933 C 63.065 308.007,63.200 308.412,63.200 308.833 C 63.200 309.255,63.350 309.600,63.532 309.600 C 63.715 309.600,64.120 310.095,64.432 310.700 C 64.744 311.305,65.089 311.890,65.199 312.000 C 65.310 312.110,65.774 312.920,66.230 313.800 C 67.320 315.901,68.151 317.352,68.405 317.600 C 68.518 317.710,69.042 318.655,69.568 319.700 C 70.095 320.745,70.677 321.600,70.863 321.600 C 71.048 321.600,71.200 321.945,71.200 322.367 C 71.200 322.788,71.335 323.193,71.500 323.267 C 71.876 323.434,73.175 325.564,73.471 326.500 C 73.593 326.885,73.852 327.200,74.047 327.200 C 74.241 327.200,74.400 327.560,74.400 328.000 C 74.400 328.440,74.580 328.800,74.800 328.800 C 75.020 328.800,75.200 329.070,75.200 329.400 C 75.200 329.730,75.380 330.000,75.600 330.000 C 75.820 330.000,76.000 330.270,76.000 330.600 C 76.000 330.930,76.180 331.200,76.400 331.200 C 76.620 331.200,76.800 331.545,76.800 331.967 C 76.800 332.388,76.935 332.793,77.100 332.867 C 77.476 333.034,78.775 335.164,79.071 336.100 C 79.193 336.485,79.452 336.800,79.647 336.800 C 79.841 336.800,80.000 337.160,80.000 337.600 C 80.000 338.040,80.159 338.400,80.353 338.400 C 80.548 338.400,80.807 338.715,80.929 339.100 C 81.146 339.785,82.404 342.004,82.800 342.400 C 83.196 342.796,84.454 345.015,84.671 345.700 C 84.793 346.085,85.052 346.400,85.247 346.400 C 85.441 346.400,85.600 346.760,85.600 347.200 C 85.600 347.640,85.759 348.000,85.953 348.000 C 86.148 348.000,86.407 348.315,86.529 348.700 C 86.766 349.447,88.046 351.667,88.432 352.000 C 88.560 352.110,88.919 352.785,89.230 353.500 C 89.541 354.215,89.931 354.800,90.098 354.800 C 90.264 354.800,90.400 355.070,90.400 355.400 C 90.400 355.730,90.580 356.000,90.800 356.000 C 91.020 356.000,91.200 356.345,91.200 356.767 C 91.200 357.188,91.335 357.593,91.500 357.667 C 91.876 357.834,93.175 359.964,93.471 360.900 C 93.593 361.285,93.852 361.600,94.047 361.600 C 94.241 361.600,94.400 361.960,94.400 362.400 C 94.400 362.840,94.580 363.200,94.800 363.200 C 95.020 363.200,95.200 363.436,95.200 363.725 C 95.200 364.013,95.560 364.636,96.000 365.108 C 96.440 365.580,96.800 366.244,96.800 366.583 C 96.800 366.922,96.959 367.200,97.153 367.200 C 97.348 367.200,97.607 367.515,97.729 367.900 C 97.983 368.703,99.123 370.605,99.992 371.677 C 100.910 372.809,299.100 372.798,300.017 371.666 C 300.878 370.603,302.018 368.699,302.271 367.900 C 302.393 367.515,302.652 367.200,302.847 367.200 C 303.041 367.200,303.200 366.922,303.200 366.583 C 303.200 366.244,303.560 365.580,304.000 365.108 C 304.440 364.636,304.800 364.013,304.800 363.725 C 304.800 363.436,304.980 363.200,305.200 363.200 C 305.420 363.200,305.600 362.855,305.600 362.433 C 305.600 362.012,305.735 361.607,305.900 361.533 C 306.276 361.366,307.575 359.236,307.871 358.300 C 307.993 357.915,308.252 357.600,308.447 357.600 C 308.641 357.600,308.800 357.240,308.800 356.800 C 308.800 356.360,308.952 356.000,309.137 356.000 C 309.323 356.000,309.905 355.145,310.432 354.100 C 310.958 353.055,311.482 352.110,311.595 352.000 C 311.987 351.618,313.251 349.396,313.471 348.700 C 313.593 348.315,313.852 348.000,314.047 348.000 C 314.241 348.000,314.400 347.655,314.400 347.233 C 314.400 346.812,314.535 346.407,314.700 346.333 C 315.076 346.166,316.375 344.036,316.671 343.100 C 316.793 342.715,317.052 342.400,317.247 342.400 C 317.441 342.400,317.600 342.122,317.600 341.783 C 317.600 341.444,317.960 340.780,318.400 340.308 C 318.840 339.836,319.200 339.213,319.200 338.925 C 319.200 338.636,319.380 338.400,319.600 338.400 C 319.820 338.400,320.000 338.055,320.000 337.633 C 320.000 337.212,320.135 336.807,320.300 336.733 C 320.676 336.566,321.975 334.436,322.271 333.500 C 322.393 333.115,322.652 332.800,322.847 332.800 C 323.041 332.800,323.200 332.522,323.200 332.183 C 323.200 331.844,323.560 331.180,324.000 330.708 C 324.440 330.236,324.800 329.613,324.800 329.325 C 324.800 329.036,324.980 328.800,325.200 328.800 C 325.420 328.800,325.600 328.455,325.600 328.033 C 325.600 327.612,325.735 327.207,325.900 327.133 C 326.276 326.966,327.575 324.836,327.871 323.900 C 327.993 323.515,328.252 323.200,328.447 323.200 C 328.641 323.200,328.800 322.840,328.800 322.400 C 328.800 321.960,328.980 321.600,329.200 321.600 C 329.420 321.600,329.600 321.330,329.600 321.000 C 329.600 320.670,329.736 320.400,329.902 320.400 C 330.069 320.400,330.459 319.815,330.770 319.100 C 331.081 318.385,331.440 317.710,331.568 317.600 C 331.954 317.267,333.234 315.047,333.471 314.300 C 333.593 313.915,333.852 313.600,334.047 313.600 C 334.241 313.600,334.400 313.240,334.400 312.800 C 334.400 312.360,334.559 312.000,334.753 312.000 C 334.948 312.000,335.207 311.685,335.329 311.300 C 335.546 310.615,336.804 308.396,337.200 308.000 C 337.596 307.604,338.854 305.385,339.071 304.700 C 339.193 304.315,339.452 304.000,339.647 304.000 C 339.841 304.000,340.000 303.655,340.000 303.233 C 340.000 302.812,340.135 302.407,340.300 302.333 C 340.676 302.166,341.975 300.036,342.271 299.100 C 342.393 298.715,342.652 298.400,342.847 298.400 C 343.041 298.400,343.200 298.040,343.200 297.600 C 343.200 297.160,343.380 296.800,343.600 296.800 C 343.820 296.800,344.000 296.530,344.000 296.200 C 344.000 295.870,344.180 295.600,344.400 295.600 C 344.620 295.600,344.800 295.330,344.800 295.000 C 344.800 294.670,344.980 294.400,345.200 294.400 C 345.420 294.400,345.600 294.055,345.600 293.633 C 345.600 293.212,345.735 292.807,345.900 292.733 C 346.276 292.566,347.575 290.436,347.871 289.500 C 347.993 289.115,348.252 288.800,348.447 288.800 C 348.641 288.800,348.800 288.440,348.800 288.000 C 348.800 287.560,348.980 287.200,349.200 287.200 C 349.420 287.200,349.600 286.930,349.600 286.600 C 349.600 286.270,349.736 286.000,349.902 286.000 C 350.069 286.000,350.459 285.415,350.770 284.700 C 351.081 283.985,351.440 283.310,351.568 283.200 C 351.954 282.867,353.234 280.647,353.471 279.900 C 353.593 279.515,353.852 279.200,354.047 279.200 C 354.241 279.200,354.400 278.840,354.400 278.400 C 354.400 277.960,354.580 277.600,354.800 277.600 C 355.020 277.600,355.200 277.364,355.200 277.075 C 355.200 276.787,355.560 276.164,356.000 275.692 C 356.440 275.220,356.800 274.571,356.800 274.250 C 356.800 273.929,356.935 273.607,357.100 273.533 C 357.476 273.366,358.775 271.236,359.071 270.300 C 359.193 269.915,359.452 269.600,359.647 269.600 C 359.841 269.600,360.000 269.255,360.000 268.833 C 360.000 268.412,360.135 268.007,360.300 267.933 C 360.676 267.766,361.975 265.636,362.271 264.700 C 362.393 264.315,362.652 264.000,362.847 264.000 C 363.041 264.000,363.200 263.722,363.200 263.383 C 363.200 263.044,363.560 262.380,364.000 261.908 C 364.440 261.436,364.800 260.813,364.800 260.525 C 364.800 260.236,364.980 260.000,365.200 260.000 C 365.420 260.000,365.600 259.655,365.600 259.233 C 365.600 258.812,365.735 258.407,365.900 258.333 C 366.276 258.166,367.575 256.036,367.871 255.100 C 367.993 254.715,368.252 254.400,368.447 254.400 C 368.641 254.400,368.800 254.040,368.800 253.600 C 368.800 253.160,368.980 252.800,369.200 252.800 C 369.420 252.800,369.600 252.530,369.600 252.200 C 369.600 251.870,369.746 251.600,369.925 251.600 C 370.104 251.600,370.498 250.970,370.800 250.200 C 371.102 249.430,371.496 248.800,371.675 248.800 C 371.854 248.800,372.000 248.522,372.000 248.183 C 372.000 247.844,372.360 247.180,372.800 246.708 C 373.240 246.236,373.600 245.613,373.600 245.325 C 373.600 245.036,373.780 244.800,374.000 244.800 C 374.220 244.800,374.400 244.455,374.400 244.033 C 374.400 243.612,374.535 243.207,374.700 243.133 C 375.076 242.966,376.375 240.836,376.671 239.900 C 376.793 239.515,377.052 239.200,377.247 239.200 C 377.441 239.200,377.600 238.922,377.600 238.583 C 377.600 238.244,377.960 237.580,378.400 237.108 C 378.840 236.636,379.200 236.013,379.200 235.725 C 379.200 235.436,379.380 235.200,379.600 235.200 C 379.820 235.200,380.000 234.840,380.000 234.400 C 380.000 233.960,380.180 233.600,380.400 233.600 C 380.620 233.600,380.800 233.364,380.800 233.075 C 380.800 232.787,381.160 232.164,381.600 231.692 C 382.040 231.220,382.400 230.556,382.400 230.217 C 382.400 229.878,382.580 229.600,382.800 229.600 C 383.020 229.600,383.200 229.322,383.200 228.983 C 383.200 228.644,383.560 227.980,384.000 227.508 C 384.440 227.036,384.800 226.413,384.800 226.125 C 384.800 225.836,384.980 225.600,385.200 225.600 C 385.420 225.600,385.600 225.255,385.600 224.833 C 385.600 224.412,385.735 224.007,385.900 223.933 C 386.276 223.766,387.575 221.636,387.871 220.700 C 387.993 220.315,388.252 220.000,388.447 220.000 C 388.641 220.000,388.800 219.640,388.800 219.200 C 388.800 218.760,388.980 218.400,389.200 218.400 C 389.420 218.400,389.600 218.130,389.600 217.800 C 389.600 217.470,389.736 217.200,389.902 217.200 C 390.069 217.200,390.459 216.615,390.770 215.900 C 391.081 215.185,391.440 214.510,391.568 214.400 C 391.839 214.166,392.607 212.842,393.770 210.600 C 394.226 209.720,394.690 208.910,394.800 208.800 C 395.196 208.404,396.454 206.185,396.671 205.500 C 396.793 205.115,397.052 204.800,397.247 204.800 C 397.441 204.800,397.600 204.440,397.600 204.000 C 397.600 203.560,397.750 203.200,397.932 203.200 C 398.115 203.200,398.520 202.705,398.832 202.100 C 399.144 201.495,399.551 200.889,399.736 200.754 C 400.037 200.534,399.373 198.921,398.768 198.400 C 398.640 198.290,398.281 197.615,397.970 196.900 C 397.659 196.185,397.269 195.600,397.102 195.600 C 396.936 195.600,396.800 195.330,396.800 195.000 C 396.800 194.670,396.620 194.400,396.400 194.400 C 396.180 194.400,396.000 194.055,396.000 193.633 C 396.000 193.212,395.865 192.807,395.700 192.733 C 395.324 192.566,394.025 190.436,393.729 189.500 C 393.607 189.115,393.348 188.800,393.153 188.800 C 392.959 188.800,392.800 188.440,392.800 188.000 C 392.800 187.560,392.641 187.200,392.447 187.200 C 392.252 187.200,391.993 186.885,391.871 186.500 C 391.654 185.815,390.396 183.596,390.000 183.200 C 389.604 182.804,388.346 180.585,388.129 179.900 C 388.007 179.515,387.748 179.200,387.553 179.200 C 387.359 179.200,387.200 178.840,387.200 178.400 C 387.200 177.960,387.020 177.600,386.800 177.600 C 386.580 177.600,386.400 177.364,386.400 177.075 C 386.400 176.787,386.040 176.164,385.600 175.692 C 385.160 175.220,384.800 174.571,384.800 174.250 C 384.800 173.929,384.665 173.607,384.500 173.533 C 384.124 173.366,382.825 171.236,382.529 170.300 C 382.407 169.915,382.148 169.600,381.953 169.600 C 381.759 169.600,381.600 169.240,381.600 168.800 C 381.600 168.360,381.441 168.000,381.247 168.000 C 381.052 168.000,380.793 167.685,380.671 167.300 C 380.451 166.604,379.187 164.382,378.795 164.000 C 378.682 163.890,378.158 162.945,377.632 161.900 C 377.105 160.855,376.523 160.000,376.337 160.000 C 376.152 160.000,376.000 159.655,376.000 159.233 C 376.000 158.812,375.865 158.407,375.700 158.333 C 375.324 158.166,374.025 156.036,373.729 155.100 C 373.607 154.715,373.348 154.400,373.153 154.400 C 372.959 154.400,372.800 154.040,372.800 153.600 C 372.800 153.160,372.620 152.800,372.400 152.800 C 372.180 152.800,372.000 152.564,372.000 152.275 C 372.000 151.987,371.640 151.364,371.200 150.892 C 370.760 150.420,370.400 149.756,370.400 149.417 C 370.400 149.078,370.241 148.800,370.047 148.800 C 369.852 148.800,369.593 148.485,369.471 148.100 C 369.251 147.404,367.987 145.182,367.595 144.800 C 367.482 144.690,366.958 143.745,366.432 142.700 C 365.905 141.655,365.323 140.800,365.137 140.800 C 364.952 140.800,364.800 140.455,364.800 140.033 C 364.800 139.612,364.665 139.207,364.500 139.133 C 364.124 138.966,362.825 136.836,362.529 135.900 C 362.407 135.515,362.148 135.200,361.953 135.200 C 361.759 135.200,361.600 134.840,361.600 134.400 C 361.600 133.960,361.441 133.600,361.247 133.600 C 361.052 133.600,360.793 133.285,360.671 132.900 C 360.434 132.153,359.154 129.933,358.768 129.600 C 358.640 129.490,358.281 128.815,357.970 128.100 C 357.659 127.385,357.269 126.800,357.102 126.800 C 356.936 126.800,356.800 126.530,356.800 126.200 C 356.800 125.870,356.620 125.600,356.400 125.600 C 356.180 125.600,356.000 125.255,356.000 124.833 C 356.000 124.412,355.865 124.007,355.700 123.933 C 355.324 123.766,354.025 121.636,353.729 120.700 C 353.607 120.315,353.348 120.000,353.153 120.000 C 352.959 120.000,352.800 119.640,352.800 119.200 C 352.800 118.760,352.620 118.400,352.400 118.400 C 352.180 118.400,352.000 118.164,352.000 117.875 C 352.000 117.587,351.640 116.964,351.200 116.492 C 350.760 116.020,350.400 115.356,350.400 115.017 C 350.400 114.678,350.220 114.400,350.000 114.400 C 349.780 114.400,349.600 114.040,349.600 113.600 C 349.600 113.160,349.450 112.800,349.268 112.800 C 349.085 112.800,348.680 112.305,348.368 111.700 C 348.056 111.095,347.711 110.510,347.601 110.400 C 347.490 110.290,347.026 109.480,346.570 108.600 C 345.496 106.531,344.652 105.052,344.400 104.800 C 344.004 104.404,342.746 102.185,342.529 101.500 C 342.407 101.115,342.148 100.800,341.953 100.800 C 341.759 100.800,341.600 100.440,341.600 100.000 C 341.600 99.560,341.441 99.200,341.247 99.200 C 341.052 99.200,340.793 98.885,340.671 98.500 C 340.451 97.804,339.187 95.582,338.795 95.200 C 338.682 95.090,338.158 94.145,337.632 93.100 C 337.105 92.055,336.523 91.200,336.337 91.200 C 336.152 91.200,336.000 90.855,336.000 90.433 C 336.000 90.012,335.865 89.607,335.700 89.533 C 335.324 89.366,334.025 87.236,333.729 86.300 C 333.607 85.915,333.348 85.600,333.153 85.600 C 332.959 85.600,332.800 85.240,332.800 84.800 C 332.800 84.360,332.620 84.000,332.400 84.000 C 332.180 84.000,332.000 83.764,332.000 83.475 C 332.000 83.187,331.640 82.564,331.200 82.092 C 330.760 81.620,330.400 80.956,330.400 80.617 C 330.400 80.278,330.241 80.000,330.047 80.000 C 329.852 80.000,329.593 79.685,329.471 79.300 C 329.254 78.615,327.996 76.396,327.600 76.000 C 327.490 75.890,327.026 75.080,326.570 74.200 C 325.496 72.131,324.652 70.652,324.400 70.400 C 324.004 70.004,322.746 67.785,322.529 67.100 C 322.407 66.715,322.148 66.400,321.953 66.400 C 321.759 66.400,321.600 66.040,321.600 65.600 C 321.600 65.160,321.441 64.800,321.247 64.800 C 321.052 64.800,320.793 64.485,320.671 64.100 C 320.434 63.353,319.154 61.133,318.768 60.800 C 318.640 60.690,318.281 60.015,317.970 59.300 C 317.659 58.585,317.269 58.000,317.102 58.000 C 316.936 58.000,316.800 57.730,316.800 57.400 C 316.800 57.070,316.620 56.800,316.400 56.800 C 316.180 56.800,316.000 56.440,316.000 56.000 C 316.000 55.560,315.841 55.200,315.647 55.200 C 315.452 55.200,315.193 54.885,315.071 54.500 C 314.775 53.564,313.476 51.434,313.100 51.267 C 312.935 51.193,312.800 50.788,312.800 50.367 C 312.800 49.945,312.620 49.600,312.400 49.600 C 312.180 49.600,312.000 49.364,312.000 49.075 C 312.000 48.787,311.640 48.164,311.200 47.692 C 310.760 47.220,310.400 46.571,310.400 46.250 C 310.400 45.929,310.265 45.607,310.100 45.533 C 309.724 45.366,308.425 43.236,308.129 42.300 C 308.007 41.915,307.748 41.600,307.553 41.600 C 307.359 41.600,307.200 41.240,307.200 40.800 C 307.200 40.360,307.020 40.000,306.800 40.000 C 306.580 40.000,306.400 39.764,306.400 39.475 C 306.400 39.187,306.040 38.564,305.600 38.092 C 305.160 37.620,304.800 36.956,304.800 36.617 C 304.800 36.278,304.620 36.000,304.400 36.000 C 304.180 36.000,304.000 35.722,304.000 35.383 C 304.000 35.044,303.640 34.380,303.200 33.908 C 302.760 33.436,302.400 32.813,302.400 32.525 C 302.400 32.236,302.220 32.000,302.000 32.000 C 301.780 32.000,301.600 31.640,301.600 31.200 C 301.600 30.760,301.441 30.400,301.247 30.400 C 301.052 30.400,300.799 30.040,300.684 29.600 C 300.353 28.335,99.647 28.335,99.316 29.600 M299.939 34.800 C 300.915 36.450,302.026 38.340,302.407 39.000 C 305.430 44.231,309.423 51.103,312.400 56.200 C 315.282 61.135,315.508 61.523,318.800 67.200 C 320.395 69.950,322.015 72.740,322.400 73.400 C 322.785 74.060,324.405 76.850,326.000 79.600 C 329.292 85.277,329.518 85.665,332.400 90.600 C 335.282 95.535,335.508 95.923,338.800 101.600 C 340.395 104.350,342.015 107.140,342.400 107.800 C 342.785 108.460,344.405 111.250,346.000 114.000 C 349.292 119.677,349.518 120.065,352.400 125.000 C 355.282 129.935,355.508 130.323,358.800 136.000 C 360.395 138.750,362.015 141.540,362.400 142.200 C 362.785 142.860,364.405 145.650,366.000 148.400 C 369.292 154.077,369.518 154.465,372.400 159.400 C 375.282 164.335,375.508 164.723,378.800 170.400 C 380.395 173.150,382.015 175.940,382.400 176.600 C 382.785 177.260,384.405 180.050,386.000 182.800 C 389.512 188.856,389.747 189.261,392.406 193.800 C 393.565 195.780,394.860 198.035,395.284 198.812 L 396.055 200.224 392.379 206.612 C 390.357 210.125,388.388 213.540,388.003 214.200 C 387.618 214.860,386.356 217.020,385.200 219.000 C 384.044 220.980,382.784 223.140,382.400 223.800 C 382.016 224.460,380.756 226.620,379.600 228.600 C 378.444 230.580,377.182 232.740,376.797 233.400 C 376.412 234.060,374.434 237.480,372.400 241.000 C 370.366 244.520,368.388 247.940,368.003 248.600 C 367.618 249.260,366.356 251.420,365.200 253.400 C 364.044 255.380,362.784 257.540,362.400 258.200 C 362.016 258.860,360.756 261.020,359.600 263.000 C 358.444 264.980,357.182 267.140,356.797 267.800 C 356.412 268.460,354.434 271.880,352.400 275.400 C 350.366 278.920,348.388 282.340,348.003 283.000 C 347.618 283.660,346.356 285.820,345.200 287.800 C 344.044 289.780,342.784 291.940,342.400 292.600 C 342.016 293.260,340.756 295.420,339.600 297.400 C 338.444 299.380,337.182 301.540,336.797 302.200 C 336.412 302.860,334.434 306.280,332.400 309.800 C 330.366 313.320,328.388 316.740,328.003 317.400 C 327.618 318.060,326.356 320.220,325.200 322.200 C 324.044 324.180,322.784 326.340,322.400 327.000 C 322.016 327.660,320.756 329.820,319.600 331.800 C 318.444 333.780,317.182 335.940,316.797 336.600 C 316.412 337.260,314.434 340.680,312.400 344.200 C 310.366 347.720,308.388 351.140,308.003 351.800 C 307.618 352.460,306.356 354.620,305.200 356.600 C 304.044 358.580,302.786 360.740,302.405 361.400 C 302.025 362.060,300.915 363.950,299.939 365.600 L 298.164 368.600 200.000 368.600 L 101.836 368.600 100.061 365.600 C 99.085 363.950,97.975 362.060,97.595 361.400 C 97.214 360.740,95.956 358.580,94.800 356.600 C 91.918 351.665,91.692 351.277,88.400 345.600 C 85.539 340.665,84.720 339.250,83.251 336.700 C 82.840 335.985,81.556 333.780,80.400 331.800 C 79.244 329.820,77.984 327.660,77.600 327.000 C 77.216 326.340,75.956 324.180,74.800 322.200 C 71.918 317.265,71.692 316.877,68.400 311.200 C 65.539 306.265,64.720 304.850,63.251 302.300 C 62.840 301.585,61.556 299.380,60.400 297.400 C 59.244 295.420,57.984 293.260,57.600 292.600 C 57.216 291.940,55.956 289.780,54.800 287.800 C 51.918 282.865,51.692 282.477,48.400 276.800 C 45.539 271.865,44.720 270.450,43.251 267.900 C 42.840 267.185,41.556 264.980,40.400 263.000 C 39.244 261.020,37.984 258.860,37.600 258.200 C 37.216 257.540,35.956 255.380,34.800 253.400 C 31.918 248.465,31.692 248.077,28.400 242.400 C 25.539 237.465,24.720 236.050,23.251 233.500 C 22.840 232.785,21.556 230.580,20.400 228.600 C 19.244 226.620,17.984 224.460,17.600 223.800 C 17.216 223.140,15.956 220.980,14.800 219.000 C 11.918 214.065,11.692 213.677,8.400 208.000 C 6.805 205.250,5.147 202.382,4.716 201.626 C 3.814 200.048,3.608 200.608,7.594 193.800 C 10.253 189.261,10.488 188.856,14.000 182.800 C 15.595 180.050,17.215 177.260,17.600 176.600 C 17.985 175.940,19.605 173.150,21.200 170.400 C 24.492 164.723,24.718 164.335,27.600 159.400 C 30.482 154.465,30.708 154.077,34.000 148.400 C 35.595 145.650,37.215 142.860,37.600 142.200 C 37.985 141.540,39.605 138.750,41.200 136.000 C 44.492 130.323,44.718 129.935,47.600 125.000 C 50.482 120.065,50.708 119.677,54.000 114.000 C 55.595 111.250,57.215 108.460,57.600 107.800 C 57.985 107.140,59.605 104.350,61.200 101.600 C 64.492 95.923,64.718 95.535,67.600 90.600 C 70.482 85.665,70.708 85.277,74.000 79.600 C 75.595 76.850,77.215 74.060,77.600 73.400 C 77.985 72.740,79.605 69.950,81.200 67.200 C 84.492 61.523,84.718 61.135,87.600 56.200 C 90.765 50.781,90.437 51.346,97.595 39.000 C 100.490 34.006,101.366 32.536,101.708 32.099 C 102.020 31.700,122.001 31.619,200.132 31.699 L 298.164 31.800 299.939 34.800 " stroke="none" fill="#807b7b" fill-rule="evenodd"></path><path id="path3" d="M116.667 183.467 C 116.296 183.837,116.329 216.000,116.700 216.000 C 116.865 216.000,116.951 208.792,116.891 199.982 L 116.782 183.965 119.691 184.082 L 122.600 184.200 122.497 189.900 C 122.440 193.035,122.483 195.600,122.593 195.600 C 122.703 195.600,123.618 194.970,124.627 194.200 C 126.468 192.795,127.351 192.586,130.600 192.787 C 138.666 193.286,141.021 210.180,133.674 214.839 C 130.854 216.627,125.744 216.302,124.019 214.223 C 123.266 213.315,122.098 213.459,121.773 214.500 C 121.619 214.995,121.291 215.532,121.046 215.694 C 120.729 215.903,120.741 215.990,121.086 215.994 C 121.353 215.997,121.783 215.595,122.040 215.100 C 122.298 214.605,122.565 214.134,122.633 214.054 C 122.702 213.974,123.246 214.293,123.842 214.762 C 128.937 218.769,135.974 216.067,137.922 209.354 C 141.124 198.323,132.851 188.098,125.022 193.411 C 124.221 193.955,123.482 194.400,123.382 194.400 C 123.282 194.400,123.200 191.989,123.200 189.043 C 123.200 184.527,123.101 183.647,122.567 183.443 C 121.711 183.114,117.000 183.133,116.667 183.467 M243.784 184.300 C 243.395 184.905,242.384 186.235,241.538 187.256 C 239.371 189.870,239.477 190.400,242.164 190.400 C 244.498 190.400,246.262 189.329,250.300 185.462 C 252.597 183.261,252.542 183.200,248.246 183.200 C 244.589 183.200,244.474 183.228,243.784 184.300 M280.923 183.604 C 278.880 184.427,278.187 187.861,279.795 189.196 C 280.814 190.042,283.479 190.172,284.609 189.431 C 288.256 187.041,285.034 181.948,280.923 183.604 M251.200 183.952 C 251.200 184.308,249.388 185.866,245.869 188.535 C 244.321 189.710,243.588 190.000,242.169 190.000 C 240.050 190.000,240.011 189.806,241.722 187.772 C 242.449 186.907,243.451 185.615,243.949 184.900 C 244.846 183.612,251.200 182.781,251.200 183.952 M284.869 184.662 C 285.948 185.639,285.855 188.176,284.711 188.977 C 281.732 191.064,277.801 187.775,279.823 184.889 C 280.608 183.768,283.726 183.628,284.869 184.662 M67.461 185.500 C 67.358 185.665,68.653 185.800,70.337 185.800 L 73.400 185.800 73.506 198.289 L 73.611 210.779 79.506 210.889 L 85.400 211.000 85.400 213.501 C 85.400 215.282,85.549 216.001,85.918 216.001 C 86.303 216.000,86.406 215.305,86.318 213.300 L 86.200 210.600 80.100 210.490 L 74.000 210.379 74.000 198.270 C 74.000 189.384,73.872 186.032,73.520 185.680 C 72.996 185.156,67.771 185.001,67.461 185.500 M217.640 188.479 C 216.167 192.293,215.901 192.708,214.382 193.562 C 213.512 194.051,212.800 194.637,212.800 194.863 C 212.800 196.116,216.551 192.453,217.371 190.400 L 218.249 188.200 220.025 188.200 L 221.800 188.200 221.920 190.500 L 222.040 192.800 225.220 192.800 L 228.400 192.800 228.400 194.983 L 228.400 197.166 225.300 197.283 L 222.200 197.400 222.089 203.353 C 221.978 209.314,222.343 211.200,223.609 211.200 C 223.824 211.200,223.635 210.835,223.189 210.389 C 222.437 209.637,222.387 209.152,222.489 203.689 L 222.600 197.800 225.719 197.683 L 228.837 197.566 228.719 195.083 L 228.600 192.600 225.519 192.484 L 222.439 192.367 222.319 190.084 L 222.200 187.800 220.098 187.679 C 218.218 187.571,217.959 187.655,217.640 188.479 M94.860 192.783 C 91.257 193.813,90.984 194.181,92.100 196.505 C 93.036 198.456,94.188 198.941,95.600 197.979 C 96.037 197.682,95.812 197.637,94.775 197.816 C 93.317 198.067,91.429 195.647,92.160 194.465 C 94.240 191.098,106.523 192.407,108.693 196.227 C 109.234 197.179,109.589 197.519,109.593 197.089 C 109.628 193.319,101.400 190.914,94.860 192.783 M149.077 192.764 C 144.273 194.703,142.338 197.688,142.185 203.400 L 142.088 207.000 142.397 203.800 C 143.291 194.540,150.631 189.896,158.515 193.602 C 166.508 197.359,166.433 211.525,158.400 215.166 C 152.638 217.779,145.386 215.058,143.242 209.481 C 142.802 208.336,142.432 207.693,142.421 208.051 C 142.347 210.361,145.258 214.093,148.194 215.453 C 158.548 220.250,168.178 210.260,163.991 199.067 C 161.891 193.456,154.795 190.457,149.077 192.764 M179.800 192.807 C 178.920 193.244,177.804 194.051,177.319 194.601 C 176.346 195.704,175.771 195.859,175.465 195.100 C 175.354 194.825,175.249 195.005,175.232 195.500 C 175.188 196.752,176.038 196.623,177.425 195.166 C 180.288 192.158,184.576 191.570,184.928 194.138 C 185.060 195.094,185.090 195.013,185.051 193.800 L 185.000 192.200 183.200 192.106 C 182.045 192.046,180.826 192.297,179.800 192.807 M195.400 192.197 C 195.180 192.271,193.976 192.638,192.725 193.012 C 190.013 193.825,189.754 194.304,190.796 196.591 C 191.741 198.667,192.167 198.872,193.985 198.133 C 196.844 196.970,199.805 196.968,200.965 198.129 C 202.283 199.446,202.352 201.077,201.100 201.318 C 200.328 201.466,200.357 201.499,201.300 201.546 C 202.303 201.595,202.400 201.475,202.400 200.182 C 202.400 197.012,198.889 195.858,194.417 197.557 C 192.241 198.384,192.188 198.361,191.034 196.088 C 188.769 191.630,203.635 191.226,206.910 195.657 C 208.372 197.634,209.238 215.195,207.900 215.735 C 207.601 215.856,207.682 215.950,208.100 215.968 C 208.982 216.008,209.164 200.309,208.315 197.475 C 207.134 193.534,200.053 190.640,195.400 192.197 M239.333 192.716 C 234.461 194.457,232.290 197.787,232.062 203.868 C 231.987 205.886,232.077 207.809,232.263 208.142 C 232.465 208.502,232.605 207.018,232.610 204.473 C 232.620 199.580,233.396 197.364,235.857 195.204 C 241.551 190.204,252.211 192.906,253.813 199.755 C 254.006 200.577,254.163 200.771,254.276 200.327 C 254.471 199.566,253.556 197.624,252.101 195.710 C 249.772 192.647,243.586 191.196,239.333 192.716 M269.697 192.856 C 268.760 193.316,267.545 194.225,266.996 194.877 C 266.115 195.925,265.973 195.977,265.778 195.331 C 265.080 193.029,264.614 192.603,262.656 192.477 C 259.493 192.274,259.600 191.856,259.600 204.425 C 259.600 210.545,259.735 215.636,259.900 215.738 C 260.065 215.840,260.200 210.766,260.200 204.462 L 260.200 193.000 262.358 193.000 L 264.516 193.000 265.070 194.900 C 265.733 197.174,265.702 197.167,267.272 195.380 C 268.751 193.694,270.030 192.984,272.200 192.643 C 274.557 192.272,274.848 192.627,274.547 195.504 L 274.290 197.959 272.645 198.110 L 271.000 198.260 272.882 198.330 C 275.021 198.410,275.391 197.695,275.127 193.991 L 275.000 192.200 273.200 192.110 C 272.031 192.052,270.803 192.313,269.697 192.856 M297.877 192.764 C 293.073 194.703,291.138 197.688,290.985 203.400 L 290.888 207.000 291.197 203.800 C 292.091 194.540,299.431 189.896,307.315 193.602 C 315.308 197.359,315.233 211.525,307.200 215.166 C 301.438 217.779,294.186 215.058,292.042 209.481 C 291.602 208.336,291.232 207.693,291.221 208.051 C 291.147 210.361,294.058 214.093,296.994 215.453 C 307.348 220.250,316.978 210.260,312.791 199.067 C 310.691 193.456,303.595 190.457,297.877 192.764 M322.483 192.508 C 319.938 193.120,317.598 195.371,317.322 197.475 C 316.748 201.840,318.149 203.761,323.847 206.422 C 329.894 209.246,330.091 211.463,324.283 211.338 C 322.423 211.298,321.684 211.395,322.200 211.610 C 327.861 213.971,331.176 209.192,325.600 206.708 C 319.986 204.207,319.238 203.700,318.243 201.720 C 315.648 196.556,319.389 192.699,327.000 192.692 C 329.443 192.690,330.611 192.570,330.000 192.384 C 328.586 191.954,324.513 192.021,322.483 192.508 M170.100 192.665 C 169.372 192.959,169.372 216.000,170.100 216.000 C 170.488 216.000,170.600 213.434,170.600 204.500 L 170.600 193.000 171.748 192.869 C 173.418 192.678,174.715 193.099,174.924 193.900 C 175.068 194.452,175.117 194.419,175.154 193.743 C 175.218 192.544,172.066 191.872,170.100 192.665 M279.467 192.667 C 279.097 193.037,279.129 216.000,279.500 216.000 C 279.665 216.000,279.800 210.825,279.800 204.500 L 279.800 193.000 282.600 193.000 L 285.400 193.000 285.400 204.462 C 285.400 210.766,285.535 215.840,285.700 215.738 C 286.235 215.408,286.062 193.422,285.520 192.880 C 285.015 192.375,279.937 192.196,279.467 192.667 M331.600 193.200 C 331.930 193.413,332.479 193.591,332.820 193.594 C 334.057 193.606,334.360 194.396,333.720 195.942 C 332.729 198.336,332.599 198.399,330.383 197.557 C 323.205 194.829,321.066 198.461,327.884 201.800 C 332.589 204.104,333.850 205.156,334.413 207.249 C 335.315 210.597,333.786 213.813,330.623 215.221 C 329.730 215.618,329.319 215.956,329.708 215.972 C 330.961 216.022,333.558 214.050,334.392 212.416 C 336.659 207.972,334.479 203.956,328.509 201.582 C 324.280 199.900,323.042 198.541,324.856 197.570 C 325.872 197.026,328.901 197.349,330.994 198.223 C 332.688 198.931,333.028 198.785,333.758 197.038 C 334.927 194.240,334.922 194.084,333.640 193.421 C 332.271 192.713,330.559 192.527,331.600 193.200 M184.400 197.177 C 184.400 197.800,184.064 197.984,182.700 198.107 L 181.000 198.260 182.900 198.330 C 184.679 198.396,184.800 198.336,184.800 197.400 C 184.800 196.850,184.710 196.400,184.600 196.400 C 184.490 196.400,184.400 196.750,184.400 197.177 M96.845 197.164 C 96.500 197.382,97.383 197.494,99.175 197.458 C 101.609 197.409,102.149 197.521,102.630 198.176 C 103.544 199.421,103.366 201.112,102.300 201.318 C 101.512 201.470,101.534 201.498,102.476 201.546 C 104.314 201.639,104.444 199.218,102.689 197.582 C 101.788 196.743,97.944 196.468,96.845 197.164 M212.800 197.238 C 212.800 197.409,213.385 197.606,214.100 197.675 L 215.400 197.800 215.620 204.400 L 215.840 211.000 215.820 204.206 L 215.800 197.413 214.300 197.169 C 213.475 197.035,212.800 197.066,212.800 197.238 M125.400 197.578 C 123.498 198.357,123.039 199.442,122.969 203.323 L 122.903 207.000 123.192 203.800 C 123.563 199.694,123.853 198.897,125.231 198.184 C 129.029 196.220,131.424 198.765,131.370 204.710 C 131.354 206.538,131.485 207.792,131.664 207.510 C 132.208 206.654,132.036 201.785,131.410 200.286 C 130.330 197.700,127.841 196.579,125.400 197.578 M151.355 197.571 C 150.203 198.065,148.800 199.923,148.800 200.954 C 148.801 201.555,149.036 201.324,149.613 200.158 C 150.822 197.716,153.161 196.939,155.564 198.181 C 158.925 199.919,158.636 208.908,155.161 210.694 C 154.269 211.153,154.259 211.189,155.030 211.194 C 158.635 211.220,159.731 201.215,156.449 198.245 C 155.525 197.408,152.627 197.025,151.355 197.571 M241.600 197.463 C 237.221 199.227,237.370 211.225,241.770 211.194 C 242.541 211.189,242.531 211.153,241.639 210.694 C 238.164 208.908,237.875 199.919,241.236 198.181 C 243.639 196.939,245.978 197.716,247.187 200.158 C 247.805 201.407,247.999 201.586,248.000 200.906 C 248.000 198.624,244.025 196.486,241.600 197.463 M300.155 197.571 C 299.003 198.065,297.600 199.923,297.600 200.954 C 297.601 201.555,297.836 201.324,298.413 200.158 C 299.622 197.716,301.961 196.939,304.364 198.181 C 307.725 199.919,307.436 208.908,303.961 210.694 C 303.069 211.153,303.059 211.189,303.830 211.194 C 307.435 211.220,308.531 201.215,305.249 198.245 C 304.325 197.408,301.427 197.025,300.155 197.571 M109.548 206.900 C 109.451 212.855,109.538 215.955,109.800 215.867 C 110.320 215.694,110.541 201.483,110.056 199.371 C 109.796 198.234,109.655 200.316,109.548 206.900 M178.338 199.302 C 176.413 200.929,176.213 201.768,176.000 209.101 C 175.890 212.896,175.915 216.001,176.055 216.001 C 176.195 216.000,176.378 212.859,176.461 209.020 C 176.631 201.228,176.864 200.502,179.635 199.119 C 180.646 198.615,180.793 198.434,180.200 198.421 C 179.760 198.412,178.922 198.808,178.338 199.302 M268.757 198.999 C 267.538 199.662,266.393 201.268,266.416 202.286 C 266.426 202.741,266.621 202.564,266.954 201.800 C 267.539 200.459,268.410 199.627,269.958 198.932 C 270.531 198.675,270.730 198.458,270.400 198.449 C 270.070 198.439,269.331 198.687,268.757 198.999 M254.537 204.200 C 254.539 205.960,254.609 206.630,254.693 205.689 C 254.778 204.749,254.777 203.309,254.691 202.489 C 254.605 201.670,254.536 202.440,254.537 204.200 M93.718 202.442 C 85.041 205.778,89.263 218.871,98.248 216.493 C 99.711 216.106,99.628 216.080,96.800 216.040 C 91.753 215.968,89.604 213.934,89.601 209.225 C 89.599 204.934,91.403 203.166,96.800 202.170 C 99.291 201.710,99.324 201.689,97.600 201.666 C 96.610 201.652,94.863 202.002,93.718 202.442 M193.800 202.021 C 193.272 202.262,193.816 202.304,195.400 202.143 C 196.720 202.009,197.875 201.832,197.967 201.750 C 198.321 201.431,194.556 201.676,193.800 202.021 M148.524 204.200 C 148.526 205.520,148.601 206.012,148.690 205.293 C 148.779 204.574,148.777 203.494,148.686 202.893 C 148.595 202.292,148.522 202.880,148.524 204.200 M248.124 204.200 C 248.126 205.520,248.201 206.012,248.290 205.293 C 248.379 204.574,248.377 203.494,248.286 202.893 C 248.195 202.292,248.122 202.880,248.124 204.200 M297.324 204.200 C 297.326 205.520,297.401 206.012,297.490 205.293 C 297.579 204.574,297.577 203.494,297.486 202.893 C 297.395 202.292,297.322 202.880,297.324 204.200 M190.496 203.323 C 188.531 204.646,187.934 205.787,187.780 208.525 L 187.641 211.000 187.972 208.661 C 188.356 205.945,189.256 204.554,191.438 203.307 C 192.297 202.815,192.730 202.421,192.400 202.430 C 192.070 202.439,191.213 202.841,190.496 203.323 M265.919 209.601 C 265.854 213.121,265.935 216.001,266.100 216.001 C 266.265 216.000,266.400 213.120,266.400 209.600 C 266.400 201.319,266.073 201.319,265.919 209.601 M101.200 205.020 C 100.870 205.090,99.905 205.261,99.055 205.400 C 94.599 206.130,94.350 212.003,98.775 211.999 C 101.533 211.996,104.000 209.490,104.000 206.693 C 104.000 205.133,103.128 204.612,101.200 205.020 M198.800 205.192 C 197.554 205.461,197.659 205.500,199.752 205.547 L 202.104 205.600 201.896 207.447 C 201.495 211.004,197.173 212.936,195.165 210.456 C 194.612 209.773,194.400 209.683,194.400 210.133 C 194.400 212.866,200.344 212.415,201.815 209.571 C 203.501 206.310,202.221 204.451,198.800 205.192 M103.200 207.345 C 103.200 210.350,99.983 212.403,97.294 211.114 C 94.120 209.592,96.846 205.600,101.059 205.600 L 103.200 205.600 103.200 207.345 M195.270 206.526 C 194.791 207.035,194.406 207.710,194.414 208.026 C 194.422 208.345,194.663 208.176,194.958 207.644 C 195.250 207.118,195.918 206.450,196.444 206.158 C 197.081 205.805,197.189 205.624,196.770 205.614 C 196.423 205.606,195.748 206.017,195.270 206.526 M148.832 207.658 C 148.794 208.917,150.771 211.212,151.860 211.175 C 152.536 211.151,152.531 211.121,151.800 210.822 C 150.731 210.384,149.796 209.262,149.284 207.800 L 148.863 206.600 148.832 207.658 M247.411 207.950 C 247.158 209.103,245.922 210.507,244.800 210.918 C 244.345 211.084,244.379 211.144,244.940 211.168 C 245.953 211.212,248.000 208.931,248.000 207.758 C 248.000 206.459,247.718 206.551,247.411 207.950 M297.632 207.658 C 297.594 208.917,299.571 211.212,300.660 211.175 C 301.336 211.151,301.331 211.121,300.600 210.822 C 299.531 210.384,298.596 209.262,298.084 207.800 L 297.663 206.600 297.632 207.658 M123.233 207.926 C 123.153 209.212,124.829 211.178,126.000 211.171 C 126.330 211.169,126.103 210.898,125.495 210.569 C 124.887 210.239,124.137 209.391,123.827 208.685 C 123.518 207.978,123.251 207.637,123.233 207.926 M253.697 209.035 C 251.023 217.948,238.044 218.696,233.477 210.200 C 233.122 209.540,232.825 209.231,232.816 209.514 C 232.743 211.858,237.073 215.556,240.890 216.410 C 246.950 217.767,255.208 212.674,254.328 208.122 C 254.240 207.669,254.005 208.010,253.697 209.035 M129.736 209.873 C 128.963 210.712,128.713 211.197,129.093 211.122 C 129.738 210.996,131.479 208.932,131.173 208.657 C 131.078 208.571,130.431 209.119,129.736 209.873 M317.200 212.459 C 317.200 215.583,317.443 215.781,322.104 216.455 C 324.547 216.808,325.952 216.826,327.234 216.519 C 328.866 216.128,328.682 216.090,324.800 216.018 C 318.619 215.902,317.831 215.525,317.678 212.614 C 317.560 210.356,317.581 210.303,318.478 210.580 C 320.286 211.138,321.446 211.279,320.800 210.861 C 320.470 210.648,319.525 210.347,318.700 210.192 L 317.200 209.911 317.200 212.459 M227.400 210.800 C 226.691 211.105,226.725 211.147,227.700 211.172 C 229.207 211.210,229.365 214.359,227.911 215.377 C 227.290 215.812,227.206 216.000,227.631 216.000 C 228.671 216.000,229.200 215.108,229.200 213.353 C 229.200 210.574,228.904 210.154,227.400 210.800 M188.000 211.809 C 187.999 216.355,196.917 218.265,201.224 214.641 C 202.592 213.490,203.200 213.331,203.200 214.124 C 203.200 214.411,203.476 214.996,203.813 215.424 C 204.353 216.108,204.352 216.014,203.800 214.621 C 202.965 212.511,202.954 212.506,201.696 213.683 C 197.792 217.336,190.856 216.769,188.808 212.631 C 188.268 211.541,188.001 211.268,188.000 211.809 M216.028 211.706 C 215.902 214.858,221.516 217.657,225.600 216.477 C 226.828 216.122,226.583 216.068,223.600 216.035 C 219.470 215.989,217.939 215.235,216.810 212.694 C 216.395 211.763,216.044 211.318,216.028 211.706 M102.714 213.937 C 101.991 214.562,101.040 215.276,100.600 215.525 C 100.024 215.849,99.971 215.979,100.409 215.988 C 100.744 215.995,101.701 215.437,102.537 214.748 C 104.068 213.486,104.602 213.536,104.861 214.967 C 104.938 215.389,105.239 215.813,105.530 215.910 C 105.890 216.030,105.791 215.559,105.222 214.443 C 104.225 212.488,104.357 212.515,102.714 213.937 " stroke="none" fill="#996c6c" fill-rule="evenodd"></path></g></svg>