<svg id="svg" version="1.1" xmlns="http://www.w3.org/2000/svg" xmlns:xlink="http://www.w3.org/1999/xlink" width="400" height="400" viewBox="0, 0, 400,400"><g id="svgg"><path id="path0" d="M160.096 168.300 L 160.200 185.400 162.301 185.521 C 164.333 185.638,164.430 185.595,165.241 184.221 C 166.203 182.589,166.769 182.461,167.830 183.633 C 169.988 186.018,175.190 186.351,178.247 184.300 C 185.226 179.618,183.987 162.900,176.508 160.823 C 173.282 159.927,170.612 160.399,168.454 162.246 C 167.584 162.991,166.766 163.600,166.636 163.600 C 166.506 163.600,166.400 160.810,166.400 157.400 L 166.400 151.200 163.196 151.200 L 159.991 151.200 160.096 168.300 M188.983 151.700 C 188.877 151.975,188.838 159.670,188.895 168.800 L 189.000 185.400 192.000 185.400 L 195.000 185.400 195.104 168.300 L 195.209 151.200 192.192 151.200 C 190.146 151.200,189.113 151.361,188.983 151.700 M82.495 169.262 L 82.600 185.400 85.600 185.400 L 88.600 185.400 88.712 180.026 C 88.846 173.594,88.843 173.600,92.487 173.600 C 101.502 173.600,106.489 167.733,104.191 159.828 C 102.714 154.749,99.914 153.464,89.895 153.270 L 82.391 153.125 82.495 169.262 M95.461 158.811 C 98.484 159.865,99.044 165.317,96.329 167.251 C 94.794 168.344,89.726 168.843,89.165 167.957 C 88.768 167.330,88.668 160.010,89.043 159.033 C 89.331 158.282,93.527 158.137,95.461 158.811 M121.397 161.146 C 120.515 161.547,119.186 162.566,118.445 163.410 C 116.999 165.056,116.010 164.739,115.994 162.624 C 115.982 161.079,115.443 160.747,113.162 160.877 L 111.000 161.000 110.894 172.973 C 110.775 186.440,110.565 185.588,114.000 185.588 C 117.246 185.588,117.117 185.903,117.267 177.597 C 117.438 168.070,118.112 166.916,123.800 166.412 L 126.200 166.200 126.318 163.300 L 126.435 160.400 124.718 160.409 C 123.773 160.414,122.278 160.745,121.397 161.146 M138.320 160.755 C 128.235 162.888,127.212 180.615,136.933 184.773 C 143.108 187.415,150.674 184.589,152.826 178.838 C 156.901 167.948,149.271 158.438,138.320 160.755 M209.800 160.747 C 204.432 162.159,201.600 166.480,201.600 173.258 C 201.600 181.463,205.918 185.606,214.457 185.594 C 220.763 185.585,222.788 184.712,222.788 182.000 C 222.788 179.746,222.424 179.481,220.372 180.241 C 215.491 182.050,210.338 181.016,208.753 177.908 C 207.083 174.634,207.124 174.615,216.100 174.492 L 224.000 174.383 224.000 171.607 C 224.000 163.611,217.578 158.700,209.800 160.747 M240.255 160.986 C 239.405 161.289,238.201 162.024,237.579 162.620 C 236.245 163.898,235.311 163.708,235.129 162.124 C 235.004 161.031,234.933 161.000,232.600 161.000 L 230.200 161.000 230.094 172.973 C 229.975 186.440,229.765 185.588,233.200 185.588 C 236.432 185.588,236.295 185.938,236.472 177.200 C 236.677 167.060,237.403 165.432,241.616 165.678 C 245.202 165.886,245.360 166.325,245.600 176.728 L 245.800 185.400 248.800 185.400 L 251.800 185.400 252.002 177.400 C 252.262 167.056,252.880 165.600,257.006 165.600 C 260.809 165.600,260.974 166.030,261.136 176.330 C 261.288 186.037,261.129 185.588,264.400 185.588 C 267.871 185.588,267.693 186.168,267.538 175.353 C 267.403 166.028,267.376 165.757,266.400 164.020 C 264.031 159.804,257.128 159.098,253.177 162.668 L 251.600 164.093 250.028 162.673 C 247.572 160.454,243.647 159.777,240.255 160.986 M280.800 160.799 C 280.030 160.996,278.910 161.276,278.312 161.423 C 276.408 161.888,276.148 162.610,277.147 164.666 C 277.805 166.020,278.206 166.430,278.715 166.270 C 285.477 164.139,288.436 164.538,288.891 167.641 C 289.267 170.203,289.135 170.292,284.665 170.510 C 275.253 170.968,271.224 175.527,274.500 182.012 C 276.781 186.527,285.963 187.067,288.576 182.839 C 289.107 181.980,289.945 182.421,290.400 183.800 C 290.895 185.299,291.821 185.763,293.852 185.531 L 295.000 185.400 295.117 176.400 C 295.271 164.527,294.859 163.076,290.842 161.338 C 289.158 160.610,282.867 160.272,280.800 160.799 M307.200 160.748 C 303.982 161.458,301.759 163.465,301.598 165.805 C 301.273 170.510,302.359 172.086,307.600 174.521 C 313.269 177.154,314.383 178.333,312.968 180.200 C 312.176 181.246,306.792 181.287,303.886 180.270 C 302.833 179.901,301.880 179.600,301.767 179.600 C 301.654 179.600,301.615 180.710,301.681 182.066 C 301.830 185.153,302.579 185.524,308.754 185.570 C 315.393 185.618,318.230 184.216,319.389 180.313 C 320.618 176.174,319.073 173.515,314.071 171.162 C 312.162 170.264,310.171 169.322,309.646 169.068 C 308.189 168.364,307.451 167.026,307.976 166.044 C 308.803 164.500,311.264 164.549,316.695 166.216 C 317.521 166.470,319.200 163.915,319.200 162.404 C 319.200 161.241,310.443 160.032,307.200 160.748 M215.835 165.459 C 217.044 166.252,218.000 167.983,218.000 169.380 L 218.000 170.400 213.224 170.400 C 207.930 170.400,207.842 170.359,208.493 168.238 C 209.431 165.183,213.222 163.748,215.835 165.459 M145.057 166.309 C 148.259 168.892,148.015 177.983,144.690 180.011 C 139.327 183.280,134.412 175.414,137.379 168.311 C 138.468 165.707,142.882 164.555,145.057 166.309 M174.958 167.337 C 177.521 170.510,176.436 178.940,173.281 180.381 C 168.438 182.591,164.734 175.852,166.871 168.719 C 167.945 165.136,172.546 164.350,174.958 167.337 M288.954 174.561 C 289.822 178.018,287.298 181.195,283.682 181.199 C 278.287 181.203,278.998 175.110,284.519 174.020 C 287.731 173.385,288.689 173.502,288.954 174.561 M91.368 217.819 C 88.353 221.662,88.363 221.600,90.740 221.600 C 92.607 221.600,92.963 221.425,95.829 219.100 C 97.524 217.725,99.246 216.353,99.655 216.051 C 100.995 215.064,100.449 214.800,97.068 214.800 L 93.737 214.800 91.368 217.819 M68.662 215.931 C 67.603 217.102,67.805 219.389,69.054 220.371 C 72.183 222.832,76.420 219.291,74.177 216.089 C 73.346 214.902,69.688 214.798,68.662 215.931 M169.783 215.700 C 169.677 215.975,169.638 223.670,169.695 232.800 L 169.800 249.400 172.800 249.400 L 175.800 249.400 175.904 232.300 L 176.009 215.200 172.992 215.200 C 170.946 215.200,169.913 215.361,169.783 215.700 M274.400 221.383 C 274.400 225.261,274.250 227.600,274.000 227.600 C 273.780 227.600,273.600 227.444,273.600 227.253 C 273.600 225.552,267.645 223.921,264.518 224.766 C 257.875 226.562,255.320 238.642,260.022 246.021 C 262.764 250.324,268.932 251.039,272.684 247.489 C 274.106 246.143,274.902 246.357,275.367 248.210 C 275.647 249.326,276.735 249.716,279.038 249.528 L 280.600 249.400 280.600 232.400 L 280.600 215.400 277.500 215.283 L 274.400 215.166 274.400 221.383 M213.603 222.107 C 212.837 224.276,212.451 224.790,210.734 225.926 C 208.145 227.640,208.036 229.320,210.500 229.524 L 212.000 229.648 212.000 236.047 C 212.000 247.482,213.276 249.600,220.161 249.600 C 224.939 249.600,225.600 249.230,225.600 246.551 L 225.600 244.430 223.036 244.670 C 218.710 245.073,218.400 244.509,218.400 236.234 L 218.400 229.631 221.900 229.516 L 225.400 229.400 225.400 227.200 L 225.400 225.000 222.000 224.800 L 218.600 224.600 218.481 222.100 L 218.362 219.600 216.425 219.600 L 214.488 219.600 213.603 222.107 M88.400 224.652 C 86.617 224.994,83.615 226.052,83.390 226.417 C 83.218 226.695,84.466 229.707,85.011 230.328 C 85.073 230.399,86.375 230.084,87.905 229.628 C 93.193 228.054,96.213 229.208,95.925 232.694 L 95.800 234.200 91.800 234.468 C 83.388 235.033,80.800 236.870,80.800 242.279 C 80.800 249.283,89.893 252.639,94.770 247.435 C 96.074 246.043,96.729 246.132,97.423 247.793 C 98.042 249.274,99.055 249.759,101.052 249.531 L 102.200 249.400 102.293 240.000 C 102.401 228.995,102.145 227.995,98.673 225.844 C 96.796 224.683,91.462 224.063,88.400 224.652 M132.865 224.857 C 132.131 225.068,130.729 226.065,129.750 227.072 C 127.777 229.103,127.583 229.074,127.003 226.670 L 126.600 225.000 124.200 225.000 L 121.800 225.000 121.800 237.200 L 121.800 249.400 124.800 249.400 L 127.800 249.400 128.013 242.200 C 128.308 232.209,129.247 230.654,135.200 230.305 L 137.000 230.200 137.359 227.941 C 137.928 224.353,136.949 223.681,132.865 224.857 M149.400 224.747 C 143.816 226.216,141.472 229.884,141.441 237.200 C 141.404 245.856,145.229 249.600,154.107 249.600 C 160.760 249.600,162.383 248.797,162.394 245.500 C 162.401 243.389,162.362 243.367,160.099 244.165 C 154.124 246.273,148.658 244.791,147.870 240.850 C 147.376 238.382,147.317 238.400,155.843 238.400 L 163.600 238.400 163.590 235.900 C 163.559 227.595,157.292 222.670,149.400 224.747 M190.000 224.652 C 188.217 224.994,185.215 226.052,184.990 226.417 C 184.818 226.695,186.066 229.707,186.611 230.328 C 186.673 230.399,187.975 230.084,189.505 229.628 C 194.793 228.054,197.813 229.208,197.525 232.694 L 197.400 234.200 193.400 234.468 C 184.988 235.033,182.400 236.870,182.400 242.279 C 182.400 249.283,191.493 252.639,196.370 247.435 C 197.674 246.043,198.329 246.132,199.023 247.793 C 199.642 249.274,200.655 249.759,202.652 249.531 L 203.800 249.400 203.893 240.000 C 204.001 228.995,203.745 227.995,200.273 225.844 C 198.396 224.683,193.062 224.063,190.000 224.652 M237.600 224.652 C 235.842 224.989,232.817 226.049,232.597 226.404 C 232.104 227.202,234.153 230.454,234.991 230.205 C 242.414 227.992,245.452 228.738,245.125 232.694 L 245.000 234.200 241.000 234.431 C 238.800 234.559,236.730 234.769,236.400 234.898 C 236.070 235.027,235.300 235.243,234.690 235.377 C 230.201 236.362,228.254 243.221,231.320 247.249 C 233.709 250.389,241.100 250.498,243.970 247.435 C 245.323 245.991,246.088 246.141,246.870 248.004 C 247.561 249.649,249.575 250.237,251.132 249.250 C 252.113 248.629,251.625 230.182,250.581 228.405 C 248.777 225.334,242.897 223.634,237.600 224.652 M294.933 224.758 C 285.051 227.311,283.760 244.048,293.089 248.643 C 299.492 251.796,307.869 248.383,309.769 241.848 C 312.888 231.118,305.090 222.135,294.933 224.758 M321.400 224.642 C 317.140 225.722,315.199 227.863,315.201 231.480 C 315.204 234.988,316.158 235.963,322.887 239.337 C 326.691 241.245,327.009 241.495,327.122 242.662 C 327.413 245.654,323.950 245.998,316.080 243.758 C 314.267 243.242,314.968 248.376,316.800 249.035 C 319.634 250.055,327.099 249.738,329.568 248.493 C 335.544 245.481,334.840 238.134,328.308 235.332 C 323.132 233.113,321.804 232.239,321.680 230.973 C 321.465 228.769,324.113 228.210,328.238 229.590 C 331.369 230.638,331.372 230.637,332.178 228.849 C 333.136 226.725,332.888 225.982,331.000 225.313 C 329.362 224.734,322.838 224.277,321.400 224.642 M68.283 225.051 C 68.127 225.206,68.000 231.662,68.000 239.397 L 68.000 253.461 67.100 254.306 C 66.459 254.908,65.567 255.187,64.000 255.276 L 61.800 255.400 61.800 257.587 L 61.800 259.775 63.570 260.125 C 67.639 260.929,71.883 259.417,73.488 256.592 C 74.388 255.008,74.392 254.926,74.296 240.000 L 74.200 225.000 71.383 224.884 C 69.833 224.820,68.438 224.895,68.283 225.051 M155.435 229.459 C 156.644 230.252,157.600 231.983,157.600 233.380 L 157.600 234.400 152.800 234.400 L 148.000 234.400 148.000 233.013 C 148.000 229.784,152.585 227.592,155.435 229.459 M272.235 230.259 C 275.630 232.484,275.472 242.404,272.013 244.193 C 266.761 246.909,262.480 240.865,264.599 233.728 C 265.727 229.931,269.274 228.320,272.235 230.259 M301.914 230.589 C 305.038 233.218,304.530 242.478,301.166 244.218 C 296.163 246.805,292.517 242.408,293.395 234.844 C 293.956 230.008,298.517 227.730,301.914 230.589 M95.932 239.600 C 96.192 243.152,93.712 245.497,90.122 245.092 C 85.551 244.577,86.272 239.303,91.073 238.129 C 94.796 237.220,95.779 237.517,95.932 239.600 M197.532 239.600 C 197.792 243.152,195.312 245.497,191.722 245.092 C 187.151 244.577,187.872 239.303,192.673 238.129 C 196.396 237.220,197.379 237.517,197.532 239.600 M245.123 239.492 C 245.387 243.136,242.915 245.497,239.268 245.086 C 234.358 244.533,235.544 239.068,240.800 238.027 C 244.298 237.333,244.983 237.566,245.123 239.492 " stroke="none" fill="#921f1f" fill-rule="evenodd"></path><path id="path1" d="M101.708 32.099 C 101.366 32.536,100.490 34.006,97.595 39.000 C 90.437 51.346,90.765 50.781,87.600 56.200 C 84.718 61.135,84.492 61.523,81.200 67.200 C 79.605 69.950,77.985 72.740,77.600 73.400 C 77.215 74.060,75.595 76.850,74.000 79.600 C 70.708 85.277,70.482 85.665,67.600 90.600 C 64.718 95.535,64.492 95.923,61.200 101.600 C 59.605 104.350,57.985 107.140,57.600 107.800 C 57.215 108.460,55.595 111.250,54.000 114.000 C 50.708 119.677,50.482 120.065,47.600 125.000 C 44.718 129.935,44.492 130.323,41.200 136.000 C 39.605 138.750,37.985 141.540,37.600 142.200 C 37.215 142.860,35.595 145.650,34.000 148.400 C 30.708 154.077,30.482 154.465,27.600 159.400 C 24.718 164.335,24.492 164.723,21.200 170.400 C 19.605 173.150,17.985 175.940,17.600 176.600 C 17.215 177.260,15.595 180.050,14.000 182.800 C 10.488 188.856,10.253 189.261,7.594 193.800 C 3.608 200.608,3.814 200.048,4.716 201.626 C 5.147 202.382,6.805 205.250,8.400 208.000 C 11.692 213.677,11.918 214.065,14.800 219.000 C 15.956 220.980,17.216 223.140,17.600 223.800 C 17.984 224.460,19.244 226.620,20.400 228.600 C 21.556 230.580,22.840 232.785,23.251 233.500 C 24.720 236.050,25.539 237.465,28.400 242.400 C 31.692 248.077,31.918 248.465,34.800 253.400 C 35.956 255.380,37.216 257.540,37.600 258.200 C 37.984 258.860,39.244 261.020,40.400 263.000 C 41.556 264.980,42.840 267.185,43.251 267.900 C 44.720 270.450,45.539 271.865,48.400 276.800 C 51.692 282.477,51.918 282.865,54.800 287.800 C 55.956 289.780,57.216 291.940,57.600 292.600 C 57.984 293.260,59.244 295.420,60.400 297.400 C 61.556 299.380,62.840 301.585,63.251 302.300 C 64.720 304.850,65.539 306.265,68.400 311.200 C 71.692 316.877,71.918 317.265,74.800 322.200 C 75.956 324.180,77.216 326.340,77.600 327.000 C 77.984 327.660,79.244 329.820,80.400 331.800 C 81.556 333.780,82.840 335.985,83.251 336.700 C 84.720 339.250,85.539 340.665,88.400 345.600 C 91.692 351.277,91.918 351.665,94.800 356.600 C 95.956 358.580,97.214 360.740,97.595 361.400 C 97.975 362.060,99.085 363.950,100.061 365.600 L 101.836 368.600 200.000 368.600 L 298.164 368.600 299.939 365.600 C 300.915 363.950,302.025 362.060,302.405 361.400 C 302.786 360.740,304.044 358.580,305.200 356.600 C 306.356 354.620,307.618 352.460,308.003 351.800 C 308.388 351.140,310.366 347.720,312.400 344.200 C 314.434 340.680,316.412 337.260,316.797 336.600 C 317.182 335.940,318.444 333.780,319.600 331.800 C 320.756 329.820,322.016 327.660,322.400 327.000 C 322.784 326.340,324.044 324.180,325.200 322.200 C 326.356 320.220,327.618 318.060,328.003 317.400 C 328.388 316.740,330.366 313.320,332.400 309.800 C 334.434 306.280,336.412 302.860,336.797 302.200 C 337.182 301.540,338.444 299.380,339.600 297.400 C 340.756 295.420,342.016 293.260,342.400 292.600 C 342.784 291.940,344.044 289.780,345.200 287.800 C 346.356 285.820,347.618 283.660,348.003 283.000 C 348.388 282.340,350.366 278.920,352.400 275.400 C 354.434 271.880,356.412 268.460,356.797 267.800 C 357.182 267.140,358.444 264.980,359.600 263.000 C 360.756 261.020,362.016 258.860,362.400 258.200 C 362.784 257.540,364.044 255.380,365.200 253.400 C 366.356 251.420,367.618 249.260,368.003 248.600 C 368.388 247.940,370.366 244.520,372.400 241.000 C 374.434 237.480,376.412 234.060,376.797 233.400 C 377.182 232.740,378.444 230.580,379.600 228.600 C 380.756 226.620,382.016 224.460,382.400 223.800 C 382.784 223.140,384.044 220.980,385.200 219.000 C 386.356 217.020,387.618 214.860,388.003 214.200 C 388.388 213.540,390.357 210.125,392.379 206.612 L 396.055 200.224 395.284 198.812 C 394.860 198.035,393.565 195.780,392.406 193.800 C 389.747 189.261,389.512 188.856,386.000 182.800 C 384.405 180.050,382.785 177.260,382.400 176.600 C 382.015 175.940,380.395 173.150,378.800 170.400 C 375.508 164.723,375.282 164.335,372.400 159.400 C 369.518 154.465,369.292 154.077,366.000 148.400 C 364.405 145.650,362.785 142.860,362.400 142.200 C 362.015 141.540,360.395 138.750,358.800 136.000 C 355.508 130.323,355.282 129.935,352.400 125.000 C 349.518 120.065,349.292 119.677,346.000 114.000 C 344.405 111.250,342.785 108.460,342.400 107.800 C 342.015 107.140,340.395 104.350,338.800 101.600 C 335.508 95.923,335.282 95.535,332.400 90.600 C 329.518 85.665,329.292 85.277,326.000 79.600 C 324.405 76.850,322.785 74.060,322.400 73.400 C 322.015 72.740,320.395 69.950,318.800 67.200 C 315.508 61.523,315.282 61.135,312.400 56.200 C 309.423 51.103,305.430 44.231,302.407 39.000 C 302.026 38.340,300.915 36.450,299.939 34.800 L 298.164 31.800 200.132 31.699 C 122.001 31.619,102.020 31.700,101.708 32.099 M166.800 156.763 C 166.976 162.186,167.069 162.843,167.573 162.234 C 169.598 159.788,175.601 159.202,178.472 161.168 C 185.322 165.862,184.834 182.130,177.749 185.264 C 174.220 186.825,170.759 186.575,168.127 184.570 C 166.531 183.355,166.239 183.358,165.673 184.600 C 165.250 185.528,165.016 185.600,162.409 185.600 L 159.600 185.600 159.600 168.267 C 159.600 158.733,159.727 150.807,159.882 150.652 C 160.036 150.497,161.611 150.422,163.382 150.485 L 166.600 150.600 166.800 156.763 M195.904 168.115 L 196.008 185.630 192.304 185.515 L 188.600 185.400 188.485 169.200 C 188.422 160.290,188.476 152.408,188.606 151.685 L 188.842 150.369 192.321 150.485 L 195.800 150.600 195.904 168.115 M98.954 153.617 C 103.188 155.201,104.891 157.928,104.941 163.200 C 105.009 170.428,100.088 174.400,91.067 174.400 L 89.600 174.400 89.600 180.015 L 89.600 185.630 85.900 185.515 L 82.200 185.400 82.095 169.601 C 82.038 160.911,82.077 153.576,82.183 153.301 C 82.543 152.362,96.292 152.621,98.954 153.617 M89.793 159.274 C 89.670 159.595,89.621 161.644,89.685 163.828 L 89.800 167.800 91.400 167.931 C 95.958 168.302,98.879 164.845,97.172 161.097 C 96.322 159.233,90.373 157.763,89.793 159.274 M126.893 162.600 C 126.708 166.728,126.755 166.662,123.836 166.896 C 118.442 167.329,117.600 168.916,117.600 178.649 L 117.600 185.600 114.000 185.600 L 110.400 185.600 110.400 173.000 L 110.400 160.400 113.148 160.400 L 115.896 160.400 116.400 162.200 C 116.998 164.337,116.974 164.329,118.274 162.785 C 119.932 160.814,121.849 160.004,124.600 160.108 L 127.000 160.200 126.893 162.600 M147.968 161.303 C 156.178 165.449,156.651 180.540,148.700 184.652 C 137.184 190.607,126.305 180.487,130.486 167.708 C 132.754 160.777,140.968 157.768,147.968 161.303 M217.622 160.608 C 221.741 162.061,223.690 164.773,224.460 170.123 C 225.198 175.253,225.638 174.978,216.457 175.109 L 208.800 175.217 208.800 176.247 C 208.800 179.852,213.116 181.571,218.600 180.149 C 219.920 179.807,221.504 179.432,222.119 179.315 L 223.239 179.104 223.119 181.852 L 223.000 184.600 220.800 185.334 C 209.023 189.264,199.450 182.233,201.196 170.935 C 202.557 162.129,209.522 157.750,217.622 160.608 M247.713 160.539 C 248.421 160.836,249.595 161.580,250.322 162.193 L 251.644 163.308 252.722 162.275 C 256.121 159.019,263.940 159.290,266.345 162.747 C 267.821 164.868,268.000 166.311,268.000 176.060 L 268.000 185.600 264.400 185.600 L 260.800 185.600 260.799 177.500 C 260.799 166.863,259.769 164.579,255.708 166.204 C 252.913 167.322,252.646 168.253,252.466 177.500 L 252.308 185.600 248.793 185.600 L 245.278 185.600 245.139 176.842 C 244.970 166.196,244.186 164.572,240.022 166.238 C 237.348 167.308,237.021 168.496,236.870 177.700 L 236.740 185.600 233.170 185.600 L 229.600 185.600 229.600 173.000 L 229.600 160.400 232.361 160.400 C 235.069 160.400,235.130 160.423,235.540 161.600 C 236.046 163.050,236.116 163.057,237.739 161.820 C 240.180 159.957,244.883 159.354,247.713 160.539 M290.154 160.492 C 294.999 161.940,296.000 164.688,296.000 176.546 L 296.000 185.600 293.280 185.600 L 290.561 185.600 290.055 184.202 L 289.549 182.803 288.075 183.986 C 281.289 189.428,272.642 185.591,273.297 177.429 C 273.687 172.572,276.219 170.778,283.800 169.985 C 288.844 169.458,288.966 169.396,288.363 167.666 C 287.580 165.420,284.161 164.879,280.110 166.360 C 278.571 166.922,277.936 167.000,277.664 166.660 C 276.779 165.552,275.626 162.796,275.828 162.271 C 276.502 160.515,286.200 159.311,290.154 160.492 M316.576 160.610 C 320.101 161.635,320.236 161.843,319.076 164.466 C 317.828 167.288,317.745 167.330,315.258 166.385 C 309.560 164.220,305.417 166.652,310.719 169.050 C 319.206 172.889,320.100 173.766,320.075 178.210 C 320.039 184.361,313.349 187.860,305.142 186.020 C 300.766 185.039,300.800 185.071,300.800 181.908 L 300.800 179.112 302.100 179.314 C 302.815 179.425,304.390 179.802,305.600 180.153 C 313.964 182.577,315.640 178.802,307.798 175.202 C 294.287 168.999,301.900 156.344,316.576 160.610 M211.355 165.572 C 210.141 166.092,208.745 168.014,208.882 168.977 C 209.035 170.048,217.037 170.491,217.436 169.450 C 218.322 167.141,214.051 164.417,211.355 165.572 M169.985 166.165 C 166.265 167.401,165.646 177.698,169.178 179.588 C 172.791 181.522,176.000 178.422,176.000 173.000 C 176.000 167.867,173.479 165.003,169.985 166.165 M139.772 166.386 C 137.665 167.239,136.485 172.681,137.551 176.626 C 139.051 182.174,145.887 181.244,146.618 175.393 C 147.507 168.275,144.589 164.436,139.772 166.386 M282.359 175.313 C 279.672 177.118,280.506 180.800,283.603 180.800 C 286.435 180.800,289.536 177.295,288.679 175.062 C 288.266 173.985,284.089 174.151,282.359 175.313 M73.900 215.196 C 75.691 216.287,75.830 219.446,74.146 220.771 C 72.040 222.428,68.743 221.719,67.775 219.402 C 66.283 215.830,70.354 213.034,73.900 215.196 M101.200 214.724 C 101.200 216.602,93.465 222.000,90.774 222.000 C 87.585 222.000,87.578 221.708,90.683 217.815 L 93.400 214.409 97.300 214.404 C 99.445 214.402,101.200 214.546,101.200 214.724 M176.704 232.115 L 176.808 249.630 173.104 249.515 L 169.400 249.400 169.285 233.200 C 169.222 224.290,169.276 216.408,169.406 215.685 L 169.642 214.369 173.121 214.485 L 176.600 214.600 176.704 232.115 M281.004 215.300 C 281.124 215.795,281.172 223.670,281.111 232.800 L 281.000 249.400 278.155 249.516 C 275.321 249.632,275.309 249.628,274.807 248.416 C 274.194 246.937,274.287 246.940,272.477 248.351 C 268.761 251.245,264.065 250.986,260.697 247.699 C 255.589 242.714,256.322 229.345,261.917 225.427 C 264.967 223.291,270.248 223.505,272.828 225.869 L 273.855 226.811 273.676 221.208 C 273.456 214.299,273.397 214.400,277.641 214.400 C 280.570 214.400,280.800 214.462,281.004 215.300 M219.200 221.800 L 219.400 224.200 222.600 224.400 L 225.800 224.600 225.800 227.200 L 225.800 229.800 222.500 229.916 L 219.200 230.032 219.200 236.567 C 219.200 244.404,219.111 244.247,223.457 244.080 L 226.400 243.967 226.400 246.334 C 226.400 249.075,226.201 249.307,223.270 249.995 C 214.751 251.992,211.913 248.941,211.666 237.521 L 211.505 230.043 210.052 229.921 C 207.691 229.724,207.885 227.171,210.395 225.403 C 211.823 224.398,212.390 223.630,213.165 221.652 L 214.140 219.165 216.570 219.283 L 219.000 219.400 219.200 221.800 M98.089 224.942 C 102.445 226.886,102.760 227.903,102.782 240.100 L 102.800 249.600 100.205 249.600 L 97.611 249.600 97.011 248.164 L 96.411 246.728 94.782 248.123 C 87.665 254.215,76.997 247.251,80.759 238.969 C 82.205 235.783,84.498 234.661,90.973 233.969 C 95.330 233.503,95.600 233.423,95.600 232.591 C 95.600 229.709,91.631 228.679,87.123 230.392 C 85.514 231.004,84.962 231.072,84.703 230.692 C 83.876 229.474,82.800 227.178,82.800 226.630 C 82.800 224.247,93.807 223.032,98.089 224.942 M137.809 224.415 C 137.950 224.643,137.940 226.173,137.786 227.815 L 137.506 230.800 135.853 230.802 C 133.336 230.806,131.477 231.467,130.177 232.823 L 129.000 234.051 128.876 241.840 L 128.752 249.629 125.076 249.515 L 121.400 249.400 121.288 237.800 C 121.148 223.320,120.918 224.333,124.308 224.482 C 126.624 224.584,127.013 224.710,127.144 225.400 C 127.228 225.840,127.459 226.628,127.658 227.151 L 128.019 228.103 129.440 226.640 C 131.637 224.378,136.918 222.974,137.809 224.415 M157.775 224.825 C 162.006 226.408,164.128 230.220,163.918 235.856 L 163.800 239.000 156.211 239.109 C 148.007 239.227,147.714 239.300,148.458 241.039 C 149.958 244.545,152.967 245.506,158.200 244.149 C 159.520 243.807,161.095 243.433,161.700 243.318 L 162.800 243.109 162.800 245.526 C 162.800 248.542,162.417 248.950,158.826 249.767 C 147.949 252.241,140.800 247.274,140.800 237.245 C 140.800 226.837,148.363 221.304,157.775 224.825 M199.689 224.942 C 204.045 226.886,204.360 227.903,204.382 240.100 L 204.400 249.600 201.805 249.600 L 199.211 249.600 198.611 248.164 L 198.011 246.728 196.382 248.123 C 189.265 254.215,178.597 247.251,182.359 238.969 C 183.805 235.783,186.098 234.661,192.573 233.969 C 196.930 233.503,197.200 233.423,197.200 232.591 C 197.200 229.709,193.231 228.679,188.723 230.392 C 187.114 231.004,186.562 231.072,186.303 230.692 C 185.476 229.474,184.400 227.178,184.400 226.630 C 184.400 224.247,195.407 223.032,199.689 224.942 M246.651 224.646 C 251.608 226.713,252.000 227.836,252.000 239.996 L 252.000 249.600 249.379 249.600 C 246.827 249.600,246.747 249.569,246.340 248.400 C 245.821 246.910,245.524 246.907,243.677 248.367 C 237.569 253.193,229.474 249.620,229.469 242.096 C 229.465 236.937,231.949 234.992,239.800 234.004 C 245.150 233.331,245.720 232.878,243.989 230.677 C 242.977 229.391,239.708 229.174,236.800 230.200 C 235.865 230.530,234.798 230.800,234.429 230.800 C 233.762 230.800,232.000 227.756,232.000 226.603 C 232.000 224.495,242.822 223.049,246.651 224.646 M304.400 225.136 C 311.199 228.671,313.157 238.498,308.492 245.668 C 305.203 250.722,296.709 251.855,291.070 247.992 C 285.308 244.044,284.626 232.188,289.870 227.122 C 293.250 223.858,300.133 222.917,304.400 225.136 M330.889 224.856 C 332.452 225.349,333.600 225.937,333.600 226.244 C 333.600 226.791,331.746 231.200,331.516 231.200 C 331.446 231.200,330.404 230.840,329.200 230.400 C 325.330 228.986,321.428 229.533,322.141 231.391 C 322.268 231.721,324.419 232.957,326.921 234.138 C 339.099 239.882,335.358 251.321,321.644 250.274 C 315.522 249.807,314.304 249.021,314.481 245.653 C 314.619 243.039,314.896 242.954,319.400 244.140 C 324.185 245.399,327.544 244.550,326.535 242.336 C 326.127 241.440,325.056 240.806,319.842 238.372 C 314.321 235.794,312.870 230.107,316.781 226.376 C 319.450 223.830,325.555 223.172,330.889 224.856 M75.105 239.072 C 75.249 258.995,74.453 260.800,65.514 260.800 C 61.665 260.800,61.200 260.479,61.200 257.819 C 61.200 254.565,61.313 254.428,63.780 254.683 C 67.718 255.089,67.600 255.559,67.600 239.433 C 67.600 222.862,67.209 224.341,71.549 224.485 L 75.000 224.600 75.105 239.072 M151.000 229.578 C 149.796 230.071,148.839 231.303,148.555 232.726 L 148.300 234.000 152.793 234.000 L 157.287 234.000 157.016 232.900 C 156.274 229.883,153.712 228.468,151.000 229.578 M267.318 230.384 C 264.231 231.702,263.770 240.712,266.659 243.254 C 269.607 245.847,273.214 243.944,274.066 239.346 C 275.224 233.099,271.754 228.491,267.318 230.384 M296.121 230.479 C 292.139 232.403,293.127 243.036,297.377 243.995 C 301.375 244.896,303.259 242.750,303.276 237.272 C 303.295 231.194,300.377 228.423,296.121 230.479 M89.740 239.079 C 86.521 240.684,87.154 244.800,90.620 244.800 C 93.565 244.800,95.600 242.681,95.600 239.613 C 95.600 238.178,92.175 237.866,89.740 239.079 M191.340 239.079 C 188.121 240.684,188.754 244.800,192.220 244.800 C 195.165 244.800,197.200 242.681,197.200 239.613 C 197.200 238.178,193.775 237.866,191.340 239.079 M238.917 239.018 C 235.626 240.482,236.300 244.800,239.820 244.800 C 242.759 244.800,244.984 242.565,244.723 239.875 C 244.579 238.378,241.407 237.910,238.917 239.018 " stroke="none" fill="#e3e3e3" fill-rule="evenodd"></path><path id="path2" d="M159.882 150.652 C 159.502 151.032,159.520 185.600,159.900 185.600 C 160.065 185.600,160.151 177.860,160.092 168.400 L 159.983 151.200 163.192 151.200 L 166.400 151.200 166.400 157.400 C 166.400 160.810,166.506 163.600,166.636 163.600 C 166.766 163.600,167.584 162.991,168.454 162.246 C 170.612 160.399,173.282 159.927,176.508 160.823 C 183.987 162.900,185.226 179.618,178.247 184.300 C 175.190 186.351,169.988 186.018,167.830 183.633 C 166.772 182.464,166.204 182.589,165.253 184.200 C 164.799 184.970,164.605 185.600,164.822 185.600 C 165.039 185.600,165.422 185.150,165.673 184.600 C 166.239 183.358,166.531 183.355,168.127 184.570 C 170.759 186.575,174.220 186.825,177.749 185.264 C 184.834 182.130,185.322 165.862,178.472 161.168 C 175.601 159.202,169.598 159.788,167.573 162.234 C 167.069 162.843,166.976 162.186,166.800 156.763 L 166.600 150.600 163.382 150.485 C 161.611 150.422,160.036 150.497,159.882 150.652 M188.656 151.285 C 188.301 152.610,188.343 185.118,188.700 185.338 C 188.865 185.440,189.000 177.846,189.000 168.462 L 189.000 151.400 192.108 151.283 L 195.217 151.166 195.108 168.383 C 195.023 182.024,195.105 185.600,195.504 185.600 C 195.904 185.600,195.987 181.966,195.904 168.100 L 195.800 150.600 192.351 150.485 C 189.050 150.375,188.890 150.410,188.656 151.285 M82.267 153.067 C 81.897 153.437,81.929 185.109,82.300 185.338 C 82.465 185.440,82.551 178.234,82.491 169.324 L 82.382 153.125 89.891 153.270 C 99.743 153.461,102.677 154.758,104.156 159.573 C 104.477 160.620,104.734 161.037,104.758 160.549 C 104.883 158.003,102.240 154.847,98.954 153.617 C 96.758 152.796,82.992 152.341,82.267 153.067 M89.043 159.033 C 88.668 160.010,88.768 167.330,89.165 167.957 C 89.726 168.843,94.794 168.344,96.329 167.251 C 99.044 165.317,98.484 159.865,95.461 158.811 C 93.527 158.137,89.331 158.282,89.043 159.033 M95.893 159.626 C 100.115 162.263,96.810 168.372,91.400 167.931 L 89.800 167.800 89.685 163.828 C 89.621 161.644,89.670 159.595,89.793 159.274 C 90.072 158.547,94.582 158.807,95.893 159.626 M120.748 160.793 C 119.950 161.220,118.837 162.116,118.274 162.785 C 116.974 164.329,116.998 164.337,116.400 162.200 L 115.896 160.400 113.148 160.400 L 110.400 160.400 110.400 173.000 C 110.400 184.736,110.448 185.600,111.100 185.594 C 111.606 185.589,111.660 185.499,111.294 185.267 C 110.900 185.017,110.811 182.285,110.894 172.973 L 111.000 161.000 113.162 160.877 C 115.443 160.747,115.982 161.079,115.994 162.624 C 116.010 164.739,116.999 165.056,118.445 163.410 C 120.089 161.538,122.424 160.421,124.718 160.409 L 126.435 160.400 126.318 163.300 L 126.200 166.200 123.800 166.412 C 118.112 166.916,117.438 168.070,117.267 177.597 C 117.176 182.667,116.987 185.087,116.667 185.291 C 116.361 185.485,116.442 185.590,116.900 185.594 C 117.540 185.599,117.600 185.005,117.600 178.649 C 117.600 168.916,118.442 167.329,123.836 166.896 C 126.755 166.662,126.708 166.728,126.893 162.600 L 127.000 160.200 124.600 160.108 C 122.855 160.042,121.804 160.229,120.748 160.793 M136.821 160.691 C 128.370 163.675,127.004 179.088,134.738 184.206 C 141.018 188.363,150.065 186.231,152.948 179.916 C 158.377 168.024,148.706 156.495,136.821 160.691 M208.581 160.530 C 204.188 162.223,202.084 165.187,201.196 170.935 C 199.450 182.233,209.023 189.264,220.800 185.334 L 223.000 184.600 223.119 181.852 L 223.239 179.104 222.119 179.315 C 221.504 179.432,219.920 179.807,218.600 180.149 C 213.116 181.571,208.800 179.852,208.800 176.247 L 208.800 175.217 216.457 175.109 C 225.638 174.978,225.198 175.253,224.460 170.123 C 223.301 162.073,216.010 157.668,208.581 160.530 M240.012 160.445 C 239.469 160.662,238.446 161.281,237.739 161.820 C 236.116 163.057,236.046 163.050,235.540 161.600 C 235.130 160.423,235.069 160.400,232.361 160.400 L 229.600 160.400 229.600 173.000 C 229.600 184.736,229.648 185.600,230.300 185.594 C 230.806 185.589,230.860 185.499,230.494 185.267 C 230.100 185.017,230.011 182.285,230.094 172.973 L 230.200 161.000 232.600 161.000 C 234.933 161.000,235.004 161.031,235.129 162.124 C 235.315 163.746,236.199 163.859,237.788 162.464 C 241.051 159.600,246.734 159.697,250.028 162.673 L 251.600 164.093 253.177 162.668 C 257.128 159.098,264.031 159.804,266.400 164.020 C 267.614 166.180,268.252 184.541,267.138 185.247 C 266.723 185.510,266.760 185.589,267.300 185.594 C 268.165 185.601,268.375 167.626,267.539 165.160 C 265.666 159.638,257.197 157.989,252.722 162.275 L 251.644 163.308 250.322 162.193 C 247.846 160.106,242.945 159.274,240.012 160.445 M278.524 160.880 C 275.593 161.846,275.333 162.302,276.452 164.523 C 277.809 167.216,277.791 167.207,280.110 166.360 C 284.161 164.879,287.580 165.420,288.363 167.666 C 288.966 169.396,288.844 169.458,283.800 169.985 C 276.219 170.778,273.687 172.572,273.297 177.429 C 272.642 185.591,281.289 189.428,288.075 183.986 L 289.549 182.803 290.055 184.202 C 290.348 185.013,290.821 185.587,291.180 185.568 C 291.558 185.549,291.613 185.461,291.322 185.343 C 291.060 185.236,290.641 184.530,290.391 183.774 C 289.944 182.417,289.104 181.985,288.576 182.839 C 285.963 187.067,276.781 186.527,274.500 182.012 C 271.224 175.527,275.253 170.968,284.665 170.510 C 289.135 170.292,289.267 170.203,288.891 167.641 C 288.436 164.538,285.477 164.139,278.715 166.270 C 277.791 166.561,276.036 163.121,276.701 162.320 C 278.101 160.632,287.812 159.938,290.842 161.310 C 294.886 163.140,295.279 164.535,295.120 176.500 C 295.027 183.578,295.111 185.601,295.500 185.600 C 296.202 185.600,296.209 168.192,295.508 165.846 C 293.962 160.673,286.116 158.379,278.524 160.880 M304.800 161.113 C 298.074 164.437,299.560 171.420,307.798 175.202 C 315.640 178.802,313.964 182.577,305.600 180.153 C 304.390 179.802,302.815 179.425,302.100 179.314 L 300.800 179.112 300.800 181.913 C 300.800 185.052,300.668 184.909,304.400 185.829 C 311.959 187.693,320.078 184.571,319.972 179.841 C 319.947 178.720,319.888 178.781,319.367 180.475 C 318.220 184.204,315.276 185.617,308.754 185.570 C 302.579 185.524,301.830 185.153,301.681 182.066 C 301.615 180.710,301.654 179.600,301.767 179.600 C 301.880 179.600,302.833 179.901,303.886 180.270 C 306.792 181.287,312.176 181.246,312.968 180.200 C 314.383 178.333,313.269 177.154,307.600 174.521 C 303.515 172.623,301.622 170.732,301.558 168.486 C 301.388 162.531,303.602 160.647,310.800 160.622 C 314.903 160.608,319.200 161.517,319.200 162.399 C 319.200 163.914,317.522 166.470,316.695 166.216 C 311.264 164.549,308.803 164.500,307.976 166.044 C 307.451 167.026,308.189 168.364,309.646 169.068 C 310.171 169.322,312.162 170.264,314.071 171.162 C 317.817 172.924,318.831 173.945,319.574 176.704 C 319.825 177.637,320.117 178.400,320.223 178.400 C 320.404 178.400,320.364 178.111,319.840 175.592 C 319.725 175.037,319.061 174.000,318.364 173.288 C 317.232 172.130,315.925 171.405,310.719 169.050 C 305.417 166.652,309.560 164.220,315.258 166.385 C 317.745 167.330,317.828 167.288,319.076 164.466 C 320.002 162.372,320.020 162.204,319.369 161.728 C 316.616 159.715,308.337 159.365,304.800 161.113 M148.021 161.850 C 153.109 164.620,155.278 172.286,152.826 178.838 C 149.183 188.575,134.120 187.920,130.824 177.882 C 127.017 166.283,137.761 156.266,148.021 161.850 M218.439 161.403 C 222.076 163.238,224.000 166.767,224.000 171.607 L 224.000 174.383 216.100 174.492 C 207.124 174.615,207.083 174.634,208.753 177.908 C 210.338 181.016,215.491 182.050,220.372 180.241 C 222.424 179.481,222.788 179.746,222.788 182.000 C 222.788 187.155,208.141 187.003,204.178 181.807 C 199.642 175.860,201.291 164.543,207.096 161.779 C 210.333 160.237,215.771 160.057,218.439 161.403 M104.800 163.054 C 104.800 169.539,100.059 173.600,92.487 173.600 C 90.704 173.600,89.544 173.785,89.272 174.114 C 88.623 174.896,88.463 185.602,89.100 185.601 C 89.476 185.600,89.600 184.213,89.600 180.000 L 89.600 174.400 91.067 174.400 C 97.284 174.400,102.093 172.137,104.057 168.289 C 104.805 166.823,105.586 161.600,105.058 161.600 C 104.916 161.600,104.800 162.254,104.800 163.054 M210.106 165.772 C 208.985 166.715,207.823 169.390,208.241 170.066 C 208.354 170.250,210.597 170.400,213.224 170.400 L 218.000 170.400 218.000 169.380 C 218.000 165.559,213.049 163.296,210.106 165.772 M215.842 166.035 C 216.755 166.793,217.688 168.792,217.436 169.450 C 217.037 170.491,209.035 170.048,208.882 168.977 C 208.497 166.281,213.560 164.141,215.842 166.035 M138.879 166.284 C 135.747 168.466,136.023 178.006,139.276 179.990 C 144.649 183.265,149.868 174.871,146.557 168.280 C 145.234 165.646,141.272 164.616,138.879 166.284 M168.325 166.373 C 165.278 168.770,165.857 178.471,169.149 180.173 C 172.137 181.719,176.102 179.467,175.959 176.306 C 175.926 175.578,175.836 175.657,175.500 176.706 C 174.574 179.591,171.664 180.919,169.178 179.588 C 165.613 177.680,166.266 167.444,170.037 166.123 C 171.295 165.682,171.319 165.643,170.354 165.623 C 169.779 165.610,168.866 165.948,168.325 166.373 M172.000 165.842 C 174.665 166.804,175.595 168.357,176.048 172.600 L 176.346 175.400 176.208 172.057 C 176.046 168.136,174.747 165.877,172.560 165.713 C 171.922 165.665,171.670 165.723,172.000 165.842 M238.520 166.500 C 237.377 167.755,236.795 168.987,236.831 170.074 C 236.855 170.804,236.961 170.703,237.331 169.597 C 238.050 167.447,238.490 166.893,240.004 166.237 C 241.296 165.676,241.324 165.630,240.370 165.616 C 239.795 165.607,238.977 165.998,238.520 166.500 M242.600 165.957 C 244.885 166.953,244.989 167.398,245.139 176.842 C 245.216 181.659,245.396 185.600,245.539 185.601 C 245.683 185.601,245.710 181.653,245.600 176.828 C 245.381 167.228,245.050 165.933,242.760 165.704 C 241.889 165.617,241.875 165.640,242.600 165.957 M254.051 166.438 C 253.556 166.900,252.939 167.755,252.680 168.338 C 252.183 169.460,251.597 185.602,252.054 185.601 C 252.194 185.600,252.379 181.955,252.466 177.500 C 252.644 168.361,252.927 167.334,255.580 166.232 C 256.872 165.694,256.908 165.639,255.975 165.621 C 255.412 165.609,254.546 165.977,254.051 166.438 M258.400 166.111 C 260.487 167.154,260.799 168.635,260.799 177.500 C 260.800 184.950,260.856 185.600,261.500 185.594 C 261.955 185.590,262.037 185.484,261.736 185.292 C 261.414 185.087,261.230 182.339,261.136 176.330 C 260.988 166.902,260.632 165.589,258.230 165.606 C 257.479 165.611,257.495 165.659,258.400 166.111 M144.104 166.364 C 147.089 167.499,147.862 175.951,145.248 178.876 C 142.898 181.507,138.525 180.228,137.551 176.626 C 135.708 169.805,139.116 164.467,144.104 166.364 M236.400 178.167 C 236.400 183.366,236.273 185.185,235.900 185.335 C 235.601 185.456,235.682 185.550,236.100 185.568 C 236.742 185.597,236.800 185.003,236.800 178.400 C 236.800 174.440,236.710 171.200,236.600 171.200 C 236.490 171.200,236.400 174.335,236.400 178.167 M284.519 174.020 C 280.495 174.815,278.709 177.945,280.982 180.218 C 283.267 182.503,288.844 180.496,288.784 177.411 C 288.773 176.811,288.623 176.936,288.207 177.892 C 286.483 181.857,280.543 181.744,280.874 177.752 C 281.131 174.643,288.061 172.771,288.844 175.600 C 288.996 176.150,289.136 176.330,289.155 176.000 C 289.291 173.630,288.405 173.252,284.519 174.020 M69.142 215.007 C 65.786 216.830,67.506 221.600,71.520 221.600 C 73.995 221.600,75.200 220.409,75.200 217.965 C 75.200 214.952,72.064 213.420,69.142 215.007 M90.683 217.815 C 87.578 221.708,87.585 222.000,90.774 222.000 C 93.054 222.000,93.171 221.944,96.650 219.177 C 102.410 214.597,102.437 214.399,97.300 214.404 L 93.400 214.409 90.683 217.815 M169.456 215.285 C 169.101 216.610,169.143 249.118,169.500 249.338 C 169.665 249.440,169.800 241.846,169.800 232.462 L 169.800 215.400 172.908 215.283 L 176.017 215.166 175.908 232.383 C 175.823 246.024,175.905 249.600,176.304 249.600 C 176.704 249.600,176.787 245.966,176.704 232.100 L 176.600 214.600 173.151 214.485 C 169.850 214.375,169.690 214.410,169.456 215.285 M273.998 215.003 C 273.630 215.446,273.545 217.089,273.676 221.208 L 273.855 226.811 272.828 225.869 C 267.570 221.051,257.434 225.945,257.647 233.200 C 257.686 234.519,257.717 234.484,258.182 232.600 C 259.636 226.705,263.027 223.987,268.258 224.523 C 270.235 224.725,273.600 226.445,273.600 227.253 C 273.600 227.444,273.780 227.600,274.000 227.600 C 274.250 227.600,274.400 225.261,274.400 221.383 L 274.400 215.166 277.500 215.283 L 280.600 215.400 280.600 232.462 C 280.600 241.846,280.735 249.440,280.900 249.338 C 281.255 249.118,281.311 215.954,280.957 215.033 C 280.615 214.141,274.734 214.115,273.998 215.003 M100.400 215.151 C 100.400 215.344,100.065 215.749,99.655 216.051 C 99.246 216.353,97.524 217.725,95.829 219.100 C 92.963 221.425,92.607 221.600,90.740 221.600 C 88.363 221.600,88.353 221.662,91.368 217.819 L 93.737 214.800 97.068 214.800 C 98.901 214.800,100.400 214.958,100.400 215.151 M74.177 216.089 C 76.420 219.291,72.183 222.832,69.054 220.371 C 67.805 219.389,67.603 217.102,68.662 215.931 C 69.688 214.798,73.346 214.902,74.177 216.089 M213.165 221.652 C 212.390 223.630,211.823 224.398,210.395 225.403 C 207.862 227.187,207.691 229.725,210.090 229.924 L 211.580 230.047 211.701 236.524 L 211.821 243.000 211.911 236.324 L 212.000 229.648 210.500 229.524 C 208.036 229.320,208.145 227.640,210.734 225.926 C 212.451 224.790,212.837 224.276,213.603 222.107 L 214.488 219.600 216.425 219.600 L 218.362 219.600 218.481 222.100 L 218.600 224.600 222.000 224.800 L 225.400 225.000 225.400 227.200 L 225.400 229.400 221.900 229.516 L 218.400 229.631 218.400 236.234 C 218.400 244.509,218.710 245.073,223.036 244.670 L 225.600 244.430 225.600 246.551 C 225.600 249.230,224.939 249.600,220.161 249.600 C 215.297 249.600,213.485 248.418,212.497 244.600 C 212.114 243.122,212.080 243.092,212.048 244.200 C 211.922 248.551,217.389 251.374,223.270 249.995 C 226.201 249.307,226.400 249.075,226.400 246.334 L 226.400 243.967 223.457 244.080 C 219.111 244.247,219.200 244.404,219.200 236.567 L 219.200 230.032 222.500 229.916 L 225.800 229.800 225.800 227.200 L 225.800 224.600 222.600 224.400 L 219.400 224.200 219.200 221.800 L 219.000 219.400 216.570 219.283 L 214.140 219.165 213.165 221.652 M86.146 224.601 C 82.547 225.736,82.256 226.203,83.585 228.716 C 84.962 231.322,84.835 231.262,87.123 230.392 C 91.631 228.679,95.600 229.709,95.600 232.591 C 95.600 233.423,95.330 233.503,90.973 233.969 C 84.498 234.661,82.205 235.783,80.759 238.969 C 76.997 247.251,87.665 254.215,94.782 248.123 L 96.411 246.728 97.011 248.164 C 97.386 249.062,97.871 249.588,98.305 249.568 C 98.739 249.549,98.809 249.460,98.490 249.332 C 98.210 249.219,97.724 248.513,97.410 247.763 C 96.728 246.131,96.068 246.049,94.770 247.435 C 89.893 252.639,80.800 249.283,80.800 242.279 C 80.800 236.870,83.388 235.033,91.800 234.468 L 95.800 234.200 95.925 232.694 C 96.213 229.208,93.193 228.054,87.905 229.628 C 86.375 230.084,85.073 230.399,85.011 230.328 C 84.466 229.707,83.218 226.695,83.390 226.417 C 84.691 224.310,95.488 223.873,98.601 225.800 C 102.169 228.010,102.409 228.938,102.296 240.100 C 102.243 245.325,102.335 249.600,102.500 249.600 C 103.071 249.600,102.814 230.737,102.220 229.074 C 100.659 224.695,92.789 222.505,86.146 224.601 M132.130 224.612 C 131.432 224.923,130.221 225.836,129.440 226.640 L 128.019 228.103 127.658 227.151 C 127.459 226.628,127.228 225.840,127.144 225.400 C 126.955 224.407,122.127 223.958,121.543 224.879 C 121.130 225.530,121.089 249.084,121.500 249.338 C 121.665 249.440,121.800 244.006,121.800 237.262 L 121.800 225.000 124.200 225.000 L 126.600 225.000 127.003 226.670 C 127.583 229.074,127.777 229.103,129.745 227.078 C 132.867 223.865,137.205 223.384,137.657 226.200 L 137.914 227.800 137.857 226.000 L 137.800 224.200 135.600 224.124 C 134.390 224.081,132.829 224.301,132.130 224.612 M148.200 224.493 C 143.292 226.249,140.800 230.543,140.800 237.245 C 140.800 247.274,147.949 252.241,158.826 249.767 C 162.417 248.950,162.800 248.542,162.800 245.526 L 162.800 243.109 161.700 243.318 C 161.095 243.433,159.520 243.807,158.200 244.149 C 152.967 245.506,149.958 244.545,148.458 241.039 C 147.714 239.300,148.007 239.227,156.211 239.109 L 163.800 239.000 163.918 235.856 C 164.248 227.029,156.588 221.491,148.200 224.493 M187.746 224.601 C 184.147 225.736,183.856 226.203,185.185 228.716 C 186.562 231.322,186.435 231.262,188.723 230.392 C 193.231 228.679,197.200 229.709,197.200 232.591 C 197.200 233.423,196.930 233.503,192.573 233.969 C 186.098 234.661,183.805 235.783,182.359 238.969 C 178.597 247.251,189.265 254.215,196.382 248.123 L 198.011 246.728 198.611 248.164 C 198.986 249.062,199.471 249.588,199.905 249.568 C 200.339 249.549,200.409 249.460,200.090 249.332 C 199.810 249.219,199.324 248.513,199.010 247.763 C 198.328 246.131,197.668 246.049,196.370 247.435 C 191.493 252.639,182.400 249.283,182.400 242.279 C 182.400 236.870,184.988 235.033,193.400 234.468 L 197.400 234.200 197.525 232.694 C 197.813 229.208,194.793 228.054,189.505 229.628 C 187.975 230.084,186.673 230.399,186.611 230.328 C 186.066 229.707,184.818 226.695,184.990 226.417 C 186.291 224.310,197.088 223.873,200.201 225.800 C 203.769 228.010,204.009 228.938,203.896 240.100 C 203.843 245.325,203.935 249.600,204.100 249.600 C 204.671 249.600,204.414 230.737,203.820 229.074 C 202.259 224.695,194.389 222.505,187.746 224.601 M235.346 224.601 C 231.681 225.757,231.482 226.111,232.880 228.989 C 233.851 230.988,234.233 231.106,236.800 230.200 C 239.708 229.174,242.977 229.391,243.989 230.677 C 245.588 232.710,245.035 233.341,241.200 233.859 L 237.800 234.318 241.400 234.259 L 245.000 234.200 245.125 232.694 C 245.452 228.738,242.414 227.992,234.991 230.205 C 234.153 230.454,232.104 227.202,232.597 226.404 C 233.894 224.306,244.698 223.880,247.812 225.805 C 251.264 227.940,251.380 228.361,251.532 239.356 C 251.638 246.986,251.557 248.981,251.132 249.250 C 250.726 249.508,250.765 249.589,251.300 249.594 C 252.479 249.604,252.350 231.136,251.153 228.589 C 249.246 224.533,241.643 222.615,235.346 224.601 M293.200 224.832 C 283.171 229.361,284.064 246.042,294.529 249.658 C 305.822 253.561,315.097 241.288,309.385 230.000 C 306.775 224.841,298.811 222.298,293.200 224.832 M319.637 224.517 C 312.917 226.662,313.043 235.197,319.842 238.372 C 325.056 240.806,326.127 241.440,326.535 242.336 C 327.544 244.550,324.185 245.399,319.400 244.140 C 314.896 242.954,314.619 243.039,314.481 245.653 C 314.304 249.021,315.522 249.807,321.644 250.274 C 329.748 250.893,334.423 247.506,333.915 241.384 C 333.637 238.025,332.361 236.704,326.921 234.138 C 324.419 232.957,322.268 231.721,322.141 231.391 C 321.428 229.533,325.330 228.986,329.200 230.400 C 330.404 230.840,331.446 231.200,331.516 231.200 C 331.746 231.200,333.600 226.791,333.600 226.244 C 333.600 224.598,323.353 223.330,319.637 224.517 M67.849 225.018 C 67.712 225.374,67.600 231.861,67.600 239.433 C 67.600 255.559,67.718 255.089,63.780 254.683 C 61.313 254.428,61.200 254.565,61.200 257.819 C 61.200 260.479,61.665 260.800,65.514 260.800 C 74.453 260.800,75.249 258.995,75.105 239.072 L 75.000 224.600 71.549 224.485 C 68.668 224.389,68.056 224.477,67.849 225.018 M158.724 225.874 C 162.124 227.977,163.572 230.958,163.590 235.900 L 163.600 238.400 155.843 238.400 C 147.317 238.400,147.376 238.382,147.870 240.850 C 148.658 244.791,154.124 246.273,160.099 244.165 C 162.362 243.367,162.401 243.389,162.394 245.500 C 162.386 247.902,162.158 248.239,160.033 248.988 C 154.877 250.808,146.405 249.187,143.909 245.903 C 139.333 239.883,140.880 228.548,146.654 225.799 C 150.460 223.986,155.723 224.019,158.724 225.874 M304.169 225.585 C 312.465 229.601,312.603 244.296,304.385 248.506 C 300.136 250.682,293.440 249.760,290.237 246.557 C 284.997 241.317,285.951 229.607,291.901 226.119 C 295.258 224.152,300.718 223.914,304.169 225.585 M331.000 225.313 C 332.888 225.982,333.136 226.725,332.178 228.849 C 331.372 230.637,331.369 230.638,328.238 229.590 C 324.113 228.210,321.465 228.769,321.680 230.973 C 321.804 232.239,323.132 233.113,328.308 235.332 C 334.840 238.134,335.544 245.481,329.568 248.493 C 327.099 249.738,319.634 250.055,316.800 249.035 C 314.968 248.376,314.267 243.242,316.080 243.758 C 323.950 245.998,327.413 245.654,327.122 242.662 C 327.009 241.495,326.691 241.245,322.887 239.337 C 316.158 235.963,315.204 234.988,315.201 231.480 C 315.199 227.863,317.140 225.722,321.400 224.642 C 322.838 224.277,329.362 224.734,331.000 225.313 M74.296 240.000 C 74.392 254.926,74.388 255.008,73.488 256.592 C 71.883 259.417,67.639 260.929,63.570 260.125 L 61.800 259.775 61.800 257.587 L 61.800 255.400 64.000 255.276 C 65.567 255.187,66.459 254.908,67.100 254.306 L 68.000 253.461 68.000 239.397 C 68.000 223.427,67.696 224.733,71.383 224.884 L 74.200 225.000 74.296 240.000 M137.127 229.100 C 137.012 230.100,136.836 230.210,135.200 230.305 C 131.793 230.505,129.665 231.700,128.681 233.965 C 128.024 235.479,127.658 249.602,128.276 249.601 C 128.624 249.600,128.786 247.502,128.876 241.825 L 129.000 234.051 130.177 232.823 C 131.484 231.460,133.337 230.806,135.900 230.802 C 137.576 230.800,137.600 230.780,137.600 229.400 C 137.600 227.733,137.305 227.546,137.127 229.100 M149.413 230.213 C 148.339 231.288,148.000 231.959,148.000 233.013 L 148.000 234.400 152.800 234.400 L 157.600 234.400 157.600 233.380 C 157.600 229.214,152.417 227.209,149.413 230.213 M154.553 229.582 C 155.684 230.012,156.614 231.265,157.016 232.900 L 157.287 234.000 152.793 234.000 L 148.300 234.000 148.555 232.726 C 149.111 229.947,151.802 228.536,154.553 229.582 M266.254 230.656 C 263.295 233.614,263.401 241.215,266.437 243.770 C 269.546 246.385,274.457 244.003,274.373 239.920 C 274.349 238.729,274.294 238.794,273.814 240.583 C 272.671 244.842,268.148 245.656,265.715 242.041 C 263.662 238.992,264.835 231.384,267.516 230.350 C 270.394 229.240,272.968 230.674,273.826 233.864 C 274.301 235.632,274.348 235.686,274.373 234.480 C 274.458 230.330,269.102 227.807,266.254 230.656 M294.863 231.051 C 292.009 234.512,292.863 242.507,296.282 244.337 C 301.226 246.983,305.576 240.457,303.591 233.369 C 302.474 229.378,297.361 228.020,294.863 231.051 M301.113 230.624 C 304.624 233.083,304.064 242.637,300.337 243.871 C 296.070 245.284,293.110 241.665,293.717 235.780 C 294.225 230.863,297.848 228.337,301.113 230.624 M233.631 235.327 C 231.066 236.639,229.720 238.528,229.446 241.200 L 229.219 243.400 229.831 240.927 C 230.507 238.196,232.565 235.844,234.690 235.375 C 237.217 234.817,237.937 234.465,236.600 234.443 C 235.940 234.432,234.604 234.830,233.631 235.327 M257.328 237.200 C 257.328 238.630,257.401 239.215,257.489 238.500 C 257.578 237.785,257.578 236.615,257.489 235.900 C 257.401 235.185,257.328 235.770,257.328 237.200 M274.493 237.200 C 274.493 237.970,274.575 238.285,274.676 237.900 C 274.776 237.515,274.776 236.885,274.676 236.500 C 274.575 236.115,274.493 236.430,274.493 237.200 M91.073 238.129 C 86.272 239.303,85.551 244.577,90.122 245.092 C 93.712 245.497,96.192 243.152,95.932 239.600 C 95.779 237.517,94.796 237.220,91.073 238.129 M192.673 238.129 C 187.872 239.303,187.151 244.577,191.722 245.092 C 195.312 245.497,197.792 243.152,197.532 239.600 C 197.379 237.517,196.396 237.220,192.673 238.129 M240.800 238.027 C 237.569 238.667,236.400 239.813,236.400 242.342 C 236.400 246.033,242.862 246.205,244.592 242.561 C 246.376 238.801,245.028 237.189,240.800 238.027 M95.600 239.613 C 95.600 242.681,93.565 244.800,90.620 244.800 C 88.172 244.800,87.008 242.937,88.040 240.673 C 89.144 238.250,95.600 237.345,95.600 239.613 M197.200 239.613 C 197.200 242.681,195.165 244.800,192.220 244.800 C 189.772 244.800,188.608 242.937,189.640 240.673 C 190.744 238.250,197.200 237.345,197.200 239.613 M244.723 239.875 C 245.077 243.529,240.044 246.444,237.600 244.000 C 235.102 241.502,237.851 238.365,242.400 238.524 C 244.562 238.599,244.602 238.622,244.723 239.875 M257.628 240.885 C 257.432 248.351,266.576 252.948,272.477 248.351 C 274.286 246.941,274.195 246.939,274.800 248.400 C 275.073 249.060,275.558 249.600,275.877 249.600 C 276.363 249.600,276.355 249.498,275.829 248.971 C 275.483 248.626,275.200 248.108,275.200 247.820 C 275.200 246.412,273.990 246.253,272.684 247.489 C 267.650 252.252,260.488 249.609,258.350 242.200 C 257.885 240.589,257.648 240.157,257.628 240.885 M229.632 244.320 C 229.447 249.703,238.635 252.350,243.677 248.367 C 245.524 246.907,245.821 246.910,246.340 248.400 C 246.570 249.060,246.934 249.600,247.149 249.600 C 247.365 249.600,247.239 248.882,246.870 248.004 C 246.088 246.141,245.323 245.991,243.970 247.435 C 239.757 251.931,231.980 250.036,229.873 244.000 C 229.741 243.624,229.651 243.743,229.632 244.320 " stroke="none" fill="#bb6c6c" fill-rule="evenodd"></path><path id="path3" d="M99.316 29.600 C 99.201 30.040,98.948 30.400,98.753 30.400 C 98.559 30.400,98.400 30.760,98.400 31.200 C 98.400 31.640,98.241 32.000,98.047 32.000 C 97.852 32.000,97.593 32.315,97.471 32.700 C 97.175 33.636,95.876 35.766,95.500 35.933 C 95.335 36.007,95.200 36.329,95.200 36.650 C 95.200 36.971,94.840 37.620,94.400 38.092 C 93.960 38.564,93.600 39.187,93.600 39.475 C 93.600 39.764,93.420 40.000,93.200 40.000 C 92.980 40.000,92.800 40.360,92.800 40.800 C 92.800 41.240,92.641 41.600,92.447 41.600 C 92.252 41.600,91.993 41.915,91.871 42.300 C 91.654 42.985,90.396 45.204,90.000 45.600 C 89.604 45.996,88.346 48.215,88.129 48.900 C 88.007 49.285,87.748 49.600,87.553 49.600 C 87.359 49.600,87.200 49.960,87.200 50.400 C 87.200 50.840,87.041 51.200,86.847 51.200 C 86.652 51.200,86.393 51.515,86.271 51.900 C 85.975 52.836,84.676 54.966,84.300 55.133 C 84.135 55.207,84.000 55.612,84.000 56.033 C 84.000 56.455,83.848 56.800,83.663 56.800 C 83.477 56.800,82.895 57.655,82.368 58.700 C 81.842 59.745,81.318 60.690,81.205 60.800 C 80.813 61.182,79.549 63.404,79.329 64.100 C 79.207 64.485,78.948 64.800,78.753 64.800 C 78.559 64.800,78.400 65.160,78.400 65.600 C 78.400 66.040,78.241 66.400,78.047 66.400 C 77.852 66.400,77.593 66.715,77.471 67.100 C 77.254 67.785,75.996 70.004,75.600 70.400 C 75.348 70.652,74.504 72.131,73.430 74.200 C 72.974 75.080,72.510 75.890,72.400 76.000 C 72.290 76.110,71.975 76.605,71.700 77.100 C 71.425 77.595,70.975 78.405,70.700 78.900 C 70.425 79.395,70.110 79.890,70.000 80.000 C 69.604 80.396,68.346 82.615,68.129 83.300 C 68.007 83.685,67.748 84.000,67.553 84.000 C 67.359 84.000,67.200 84.345,67.200 84.767 C 67.200 85.188,67.065 85.593,66.900 85.667 C 66.524 85.834,65.225 87.964,64.929 88.900 C 64.807 89.285,64.548 89.600,64.353 89.600 C 64.159 89.600,64.000 89.960,64.000 90.400 C 64.000 90.840,63.820 91.200,63.600 91.200 C 63.380 91.200,63.200 91.470,63.200 91.800 C 63.200 92.130,63.064 92.400,62.898 92.400 C 62.731 92.400,62.341 92.985,62.030 93.700 C 61.719 94.415,61.360 95.090,61.232 95.200 C 60.846 95.533,59.566 97.753,59.329 98.500 C 59.207 98.885,58.948 99.200,58.753 99.200 C 58.559 99.200,58.400 99.545,58.400 99.967 C 58.400 100.388,58.265 100.793,58.100 100.867 C 57.724 101.034,56.425 103.164,56.129 104.100 C 56.007 104.485,55.748 104.800,55.553 104.800 C 55.359 104.800,55.200 105.078,55.200 105.417 C 55.200 105.756,54.840 106.420,54.400 106.892 C 53.960 107.364,53.600 107.987,53.600 108.275 C 53.600 108.564,53.420 108.800,53.200 108.800 C 52.980 108.800,52.800 109.145,52.800 109.567 C 52.800 109.988,52.665 110.393,52.500 110.467 C 52.124 110.634,50.825 112.764,50.529 113.700 C 50.407 114.085,50.148 114.400,49.953 114.400 C 49.759 114.400,49.600 114.678,49.600 115.017 C 49.600 115.356,49.240 116.020,48.800 116.492 C 48.360 116.964,48.000 117.587,48.000 117.875 C 48.000 118.164,47.820 118.400,47.600 118.400 C 47.380 118.400,47.200 118.745,47.200 119.167 C 47.200 119.588,47.065 119.993,46.900 120.067 C 46.524 120.234,45.225 122.364,44.929 123.300 C 44.807 123.685,44.548 124.000,44.353 124.000 C 44.159 124.000,44.000 124.360,44.000 124.800 C 44.000 125.240,43.848 125.600,43.663 125.600 C 43.477 125.600,42.895 126.455,42.368 127.500 C 41.842 128.545,41.318 129.490,41.205 129.600 C 40.813 129.982,39.549 132.204,39.329 132.900 C 39.207 133.285,38.948 133.600,38.753 133.600 C 38.559 133.600,38.400 133.945,38.400 134.367 C 38.400 134.788,38.265 135.193,38.100 135.267 C 37.724 135.434,36.425 137.564,36.129 138.500 C 36.007 138.885,35.748 139.200,35.553 139.200 C 35.359 139.200,35.200 139.560,35.200 140.000 C 35.200 140.440,35.048 140.800,34.863 140.800 C 34.677 140.800,34.095 141.655,33.568 142.700 C 33.042 143.745,32.518 144.690,32.405 144.800 C 32.013 145.182,30.749 147.404,30.529 148.100 C 30.407 148.485,30.148 148.800,29.953 148.800 C 29.759 148.800,29.600 149.078,29.600 149.417 C 29.600 149.756,29.240 150.420,28.800 150.892 C 28.360 151.364,28.000 151.987,28.000 152.275 C 28.000 152.564,27.820 152.800,27.600 152.800 C 27.380 152.800,27.200 153.145,27.200 153.567 C 27.200 153.988,27.065 154.393,26.900 154.467 C 26.524 154.634,25.225 156.764,24.929 157.700 C 24.807 158.085,24.548 158.400,24.353 158.400 C 24.159 158.400,24.000 158.760,24.000 159.200 C 24.000 159.640,23.820 160.000,23.600 160.000 C 23.380 160.000,23.200 160.270,23.200 160.600 C 23.200 160.930,23.064 161.200,22.898 161.200 C 22.731 161.200,22.341 161.785,22.030 162.500 C 21.719 163.215,21.360 163.890,21.232 164.000 C 20.846 164.333,19.566 166.553,19.329 167.300 C 19.207 167.685,18.948 168.000,18.753 168.000 C 18.559 168.000,18.400 168.360,18.400 168.800 C 18.400 169.240,18.241 169.600,18.047 169.600 C 17.852 169.600,17.593 169.915,17.471 170.300 C 17.254 170.985,15.996 173.204,15.600 173.600 C 15.204 173.996,13.946 176.215,13.729 176.900 C 13.607 177.285,13.348 177.600,13.153 177.600 C 12.959 177.600,12.800 177.945,12.800 178.367 C 12.800 178.788,12.665 179.193,12.500 179.267 C 12.124 179.434,10.825 181.564,10.529 182.500 C 10.407 182.885,10.148 183.200,9.953 183.200 C 9.759 183.200,9.600 183.478,9.600 183.817 C 9.600 184.156,9.240 184.820,8.800 185.292 C 8.360 185.764,8.000 186.387,8.000 186.675 C 8.000 186.964,7.820 187.200,7.600 187.200 C 7.380 187.200,7.200 187.545,7.200 187.967 C 7.200 188.388,7.065 188.793,6.900 188.867 C 6.524 189.034,5.225 191.164,4.929 192.100 C 4.807 192.485,4.548 192.800,4.353 192.800 C 4.159 192.800,4.000 193.160,4.000 193.600 C 4.000 194.040,3.848 194.400,3.663 194.400 C 3.477 194.400,2.895 195.255,2.368 196.300 C 1.842 197.345,1.318 198.290,1.205 198.400 C 0.590 198.999,-0.027 200.541,0.263 200.754 C 0.709 201.080,1.991 203.216,2.271 204.100 C 2.393 204.485,2.652 204.800,2.847 204.800 C 3.041 204.800,3.200 205.078,3.200 205.417 C 3.200 205.756,3.560 206.420,4.000 206.892 C 4.440 207.364,4.800 207.987,4.800 208.275 C 4.800 208.564,4.980 208.800,5.200 208.800 C 5.420 208.800,5.600 209.160,5.600 209.600 C 5.600 210.040,5.780 210.400,6.000 210.400 C 6.220 210.400,6.400 210.636,6.400 210.925 C 6.400 211.213,6.760 211.836,7.200 212.308 C 7.640 212.780,8.000 213.444,8.000 213.783 C 8.000 214.122,8.146 214.400,8.325 214.400 C 8.504 214.400,8.898 215.030,9.200 215.800 C 9.502 216.570,9.896 217.200,10.075 217.200 C 10.254 217.200,10.400 217.470,10.400 217.800 C 10.400 218.130,10.580 218.400,10.800 218.400 C 11.020 218.400,11.200 218.745,11.200 219.167 C 11.200 219.588,11.335 219.993,11.500 220.067 C 11.876 220.234,13.175 222.364,13.471 223.300 C 13.593 223.685,13.852 224.000,14.047 224.000 C 14.241 224.000,14.400 224.360,14.400 224.800 C 14.400 225.240,14.580 225.600,14.800 225.600 C 15.020 225.600,15.200 225.870,15.200 226.200 C 15.200 226.530,15.380 226.800,15.600 226.800 C 15.820 226.800,16.000 227.070,16.000 227.400 C 16.000 227.730,16.180 228.000,16.400 228.000 C 16.620 228.000,16.800 228.345,16.800 228.767 C 16.800 229.188,16.935 229.593,17.100 229.667 C 17.476 229.834,18.775 231.964,19.071 232.900 C 19.193 233.285,19.452 233.600,19.647 233.600 C 19.841 233.600,20.000 233.960,20.000 234.400 C 20.000 234.840,20.180 235.200,20.400 235.200 C 20.620 235.200,20.800 235.436,20.800 235.725 C 20.800 236.013,21.160 236.636,21.600 237.108 C 22.040 237.580,22.400 238.244,22.400 238.583 C 22.400 238.922,22.580 239.200,22.800 239.200 C 23.020 239.200,23.200 239.478,23.200 239.817 C 23.200 240.156,23.560 240.820,24.000 241.292 C 24.440 241.764,24.800 242.387,24.800 242.675 C 24.800 242.964,24.980 243.200,25.200 243.200 C 25.420 243.200,25.600 243.560,25.600 244.000 C 25.600 244.440,25.759 244.800,25.953 244.800 C 26.148 244.800,26.407 245.115,26.529 245.500 C 26.749 246.196,28.013 248.418,28.405 248.800 C 28.518 248.910,29.042 249.855,29.568 250.900 C 30.095 251.945,30.677 252.800,30.863 252.800 C 31.048 252.800,31.200 253.145,31.200 253.567 C 31.200 253.988,31.335 254.393,31.500 254.467 C 31.876 254.634,33.175 256.764,33.471 257.700 C 33.593 258.085,33.852 258.400,34.047 258.400 C 34.241 258.400,34.400 258.760,34.400 259.200 C 34.400 259.640,34.580 260.000,34.800 260.000 C 35.020 260.000,35.200 260.270,35.200 260.600 C 35.200 260.930,35.380 261.200,35.600 261.200 C 35.820 261.200,36.000 261.470,36.000 261.800 C 36.000 262.130,36.180 262.400,36.400 262.400 C 36.620 262.400,36.800 262.760,36.800 263.200 C 36.800 263.640,36.980 264.000,37.200 264.000 C 37.420 264.000,37.600 264.278,37.600 264.617 C 37.600 264.956,37.960 265.620,38.400 266.092 C 38.840 266.564,39.200 267.187,39.200 267.475 C 39.200 267.764,39.380 268.000,39.600 268.000 C 39.820 268.000,40.000 268.345,40.000 268.767 C 40.000 269.188,40.135 269.593,40.300 269.667 C 40.676 269.834,41.975 271.964,42.271 272.900 C 42.393 273.285,42.652 273.600,42.847 273.600 C 43.041 273.600,43.200 273.878,43.200 274.217 C 43.200 274.556,43.560 275.220,44.000 275.692 C 44.440 276.164,44.800 276.787,44.800 277.075 C 44.800 277.364,44.980 277.600,45.200 277.600 C 45.420 277.600,45.600 277.960,45.600 278.400 C 45.600 278.840,45.780 279.200,46.000 279.200 C 46.220 279.200,46.400 279.436,46.400 279.725 C 46.400 280.013,46.760 280.636,47.200 281.108 C 47.640 281.580,48.000 282.229,48.000 282.550 C 48.000 282.871,48.135 283.193,48.300 283.267 C 48.465 283.340,49.033 284.255,49.563 285.300 C 50.092 286.345,50.677 287.200,50.863 287.200 C 51.048 287.200,51.200 287.545,51.200 287.967 C 51.200 288.388,51.335 288.793,51.500 288.867 C 51.876 289.034,53.175 291.164,53.471 292.100 C 53.593 292.485,53.852 292.800,54.047 292.800 C 54.241 292.800,54.400 293.160,54.400 293.600 C 54.400 294.040,54.580 294.400,54.800 294.400 C 55.020 294.400,55.200 294.670,55.200 295.000 C 55.200 295.330,55.380 295.600,55.600 295.600 C 55.820 295.600,56.000 295.870,56.000 296.200 C 56.000 296.530,56.180 296.800,56.400 296.800 C 56.620 296.800,56.800 297.160,56.800 297.600 C 56.800 298.040,56.980 298.400,57.200 298.400 C 57.420 298.400,57.600 298.678,57.600 299.017 C 57.600 299.356,57.960 300.020,58.400 300.492 C 58.840 300.964,59.200 301.587,59.200 301.875 C 59.200 302.164,59.380 302.400,59.600 302.400 C 59.820 302.400,60.000 302.760,60.000 303.200 C 60.000 303.640,60.159 304.000,60.353 304.000 C 60.548 304.000,60.807 304.315,60.929 304.700 C 61.225 305.636,62.524 307.766,62.900 307.933 C 63.065 308.007,63.200 308.329,63.200 308.650 C 63.200 308.971,63.560 309.620,64.000 310.092 C 64.440 310.564,64.800 311.187,64.800 311.475 C 64.800 311.764,64.980 312.000,65.200 312.000 C 65.420 312.000,65.600 312.360,65.600 312.800 C 65.600 313.240,65.759 313.600,65.953 313.600 C 66.148 313.600,66.407 313.915,66.529 314.300 C 66.749 314.996,68.013 317.218,68.405 317.600 C 68.518 317.710,69.042 318.655,69.568 319.700 C 70.095 320.745,70.677 321.600,70.863 321.600 C 71.048 321.600,71.200 321.945,71.200 322.367 C 71.200 322.788,71.335 323.193,71.500 323.267 C 71.876 323.434,73.175 325.564,73.471 326.500 C 73.593 326.885,73.852 327.200,74.047 327.200 C 74.241 327.200,74.400 327.560,74.400 328.000 C 74.400 328.440,74.580 328.800,74.800 328.800 C 75.020 328.800,75.200 329.070,75.200 329.400 C 75.200 329.730,75.380 330.000,75.600 330.000 C 75.820 330.000,76.000 330.270,76.000 330.600 C 76.000 330.930,76.180 331.200,76.400 331.200 C 76.620 331.200,76.800 331.545,76.800 331.967 C 76.800 332.388,76.935 332.793,77.100 332.867 C 77.476 333.034,78.775 335.164,79.071 336.100 C 79.193 336.485,79.452 336.800,79.647 336.800 C 79.841 336.800,80.000 337.145,80.000 337.567 C 80.000 337.988,80.135 338.393,80.300 338.467 C 80.676 338.634,81.975 340.764,82.271 341.700 C 82.393 342.085,82.652 342.400,82.847 342.400 C 83.041 342.400,83.200 342.678,83.200 343.017 C 83.200 343.356,83.560 344.020,84.000 344.492 C 84.440 344.964,84.800 345.587,84.800 345.875 C 84.800 346.164,84.980 346.400,85.200 346.400 C 85.420 346.400,85.600 346.760,85.600 347.200 C 85.600 347.640,85.759 348.000,85.953 348.000 C 86.148 348.000,86.407 348.315,86.529 348.700 C 86.749 349.396,88.013 351.618,88.405 352.000 C 88.518 352.110,89.042 353.055,89.568 354.100 C 90.095 355.145,90.677 356.000,90.863 356.000 C 91.048 356.000,91.200 356.345,91.200 356.767 C 91.200 357.188,91.335 357.593,91.500 357.667 C 91.876 357.834,93.175 359.964,93.471 360.900 C 93.593 361.285,93.852 361.600,94.047 361.600 C 94.241 361.600,94.400 361.960,94.400 362.400 C 94.400 362.840,94.580 363.200,94.800 363.200 C 95.020 363.200,95.200 363.436,95.200 363.725 C 95.200 364.013,95.560 364.636,96.000 365.108 C 96.440 365.580,96.800 366.244,96.800 366.583 C 96.800 366.922,96.980 367.200,97.200 367.200 C 97.420 367.200,97.600 367.478,97.600 367.817 C 97.600 368.156,97.960 368.820,98.400 369.292 C 98.840 369.764,99.200 370.387,99.200 370.675 C 99.200 370.964,99.380 371.200,99.600 371.200 C 99.820 371.200,100.000 371.470,100.000 371.800 C 100.000 372.806,299.171 372.701,300.011 371.694 C 300.335 371.306,300.855 370.496,301.168 369.894 C 301.480 369.292,301.885 368.800,302.068 368.800 C 302.250 368.800,302.400 368.440,302.400 368.000 C 302.400 367.560,302.580 367.200,302.800 367.200 C 303.020 367.200,303.200 366.922,303.200 366.583 C 303.200 366.244,303.560 365.580,304.000 365.108 C 304.440 364.636,304.800 364.013,304.800 363.725 C 304.800 363.436,304.980 363.200,305.200 363.200 C 305.420 363.200,305.600 362.855,305.600 362.433 C 305.600 362.012,305.735 361.607,305.900 361.533 C 306.276 361.366,307.575 359.236,307.871 358.300 C 307.993 357.915,308.252 357.600,308.447 357.600 C 308.641 357.600,308.800 357.240,308.800 356.800 C 308.800 356.360,308.952 356.000,309.137 356.000 C 309.323 356.000,309.905 355.145,310.432 354.100 C 310.958 353.055,311.482 352.110,311.595 352.000 C 311.849 351.752,312.680 350.301,313.770 348.200 C 314.226 347.320,314.690 346.510,314.800 346.400 C 314.910 346.290,315.225 345.795,315.500 345.300 C 315.775 344.805,316.225 343.995,316.500 343.500 C 316.775 343.005,317.090 342.510,317.200 342.400 C 317.596 342.004,318.854 339.785,319.071 339.100 C 319.193 338.715,319.452 338.400,319.647 338.400 C 319.841 338.400,320.000 338.055,320.000 337.633 C 320.000 337.212,320.135 336.807,320.300 336.733 C 320.676 336.566,321.975 334.436,322.271 333.500 C 322.393 333.115,322.652 332.800,322.847 332.800 C 323.041 332.800,323.200 332.522,323.200 332.183 C 323.200 331.844,323.560 331.180,324.000 330.708 C 324.440 330.236,324.800 329.613,324.800 329.325 C 324.800 329.036,324.980 328.800,325.200 328.800 C 325.420 328.800,325.600 328.455,325.600 328.033 C 325.600 327.612,325.735 327.207,325.900 327.133 C 326.276 326.966,327.575 324.836,327.871 323.900 C 327.993 323.515,328.252 323.200,328.447 323.200 C 328.641 323.200,328.800 322.840,328.800 322.400 C 328.800 321.960,328.980 321.600,329.200 321.600 C 329.420 321.600,329.600 321.330,329.600 321.000 C 329.600 320.670,329.736 320.400,329.902 320.400 C 330.069 320.400,330.459 319.815,330.770 319.100 C 331.081 318.385,331.440 317.710,331.568 317.600 C 331.954 317.267,333.234 315.047,333.471 314.300 C 333.593 313.915,333.852 313.600,334.047 313.600 C 334.241 313.600,334.400 313.240,334.400 312.800 C 334.400 312.360,334.559 312.000,334.753 312.000 C 334.948 312.000,335.207 311.685,335.329 311.300 C 335.546 310.615,336.804 308.396,337.200 308.000 C 337.596 307.604,338.854 305.385,339.071 304.700 C 339.193 304.315,339.452 304.000,339.647 304.000 C 339.841 304.000,340.000 303.655,340.000 303.233 C 340.000 302.812,340.135 302.407,340.300 302.333 C 340.676 302.166,341.975 300.036,342.271 299.100 C 342.393 298.715,342.652 298.400,342.847 298.400 C 343.041 298.400,343.200 298.122,343.200 297.783 C 343.200 297.444,343.560 296.780,344.000 296.308 C 344.440 295.836,344.800 295.213,344.800 294.925 C 344.800 294.636,344.980 294.400,345.200 294.400 C 345.420 294.400,345.600 294.055,345.600 293.633 C 345.600 293.212,345.735 292.807,345.900 292.733 C 346.276 292.566,347.575 290.436,347.871 289.500 C 347.993 289.115,348.252 288.800,348.447 288.800 C 348.641 288.800,348.800 288.440,348.800 288.000 C 348.800 287.560,348.980 287.200,349.200 287.200 C 349.420 287.200,349.600 286.930,349.600 286.600 C 349.600 286.270,349.746 286.000,349.925 286.000 C 350.104 286.000,350.498 285.370,350.800 284.600 C 351.102 283.830,351.496 283.200,351.675 283.200 C 351.854 283.200,352.000 282.922,352.000 282.583 C 352.000 282.244,352.360 281.580,352.800 281.108 C 353.240 280.636,353.600 280.013,353.600 279.725 C 353.600 279.436,353.780 279.200,354.000 279.200 C 354.220 279.200,354.400 278.840,354.400 278.400 C 354.400 277.960,354.580 277.600,354.800 277.600 C 355.020 277.600,355.200 277.364,355.200 277.075 C 355.200 276.787,355.560 276.164,356.000 275.692 C 356.440 275.220,356.800 274.556,356.800 274.217 C 356.800 273.878,356.980 273.600,357.200 273.600 C 357.420 273.600,357.600 273.322,357.600 272.983 C 357.600 272.644,357.960 271.980,358.400 271.508 C 358.840 271.036,359.200 270.413,359.200 270.125 C 359.200 269.836,359.380 269.600,359.600 269.600 C 359.820 269.600,360.000 269.255,360.000 268.833 C 360.000 268.412,360.135 268.007,360.300 267.933 C 360.676 267.766,361.975 265.636,362.271 264.700 C 362.393 264.315,362.652 264.000,362.847 264.000 C 363.041 264.000,363.200 263.722,363.200 263.383 C 363.200 263.044,363.560 262.380,364.000 261.908 C 364.440 261.436,364.800 260.813,364.800 260.525 C 364.800 260.236,364.980 260.000,365.200 260.000 C 365.420 260.000,365.600 259.655,365.600 259.233 C 365.600 258.812,365.735 258.407,365.900 258.333 C 366.276 258.166,367.575 256.036,367.871 255.100 C 367.993 254.715,368.252 254.400,368.447 254.400 C 368.641 254.400,368.800 254.040,368.800 253.600 C 368.800 253.160,368.952 252.800,369.137 252.800 C 369.323 252.800,369.908 251.945,370.437 250.900 C 370.967 249.855,371.535 248.940,371.700 248.867 C 371.865 248.793,372.000 248.471,372.000 248.150 C 372.000 247.829,372.360 247.180,372.800 246.708 C 373.240 246.236,373.600 245.613,373.600 245.325 C 373.600 245.036,373.780 244.800,374.000 244.800 C 374.220 244.800,374.400 244.440,374.400 244.000 C 374.400 243.560,374.559 243.200,374.753 243.200 C 374.948 243.200,375.207 242.885,375.329 242.500 C 375.546 241.815,376.804 239.596,377.200 239.200 C 377.596 238.804,378.854 236.585,379.071 235.900 C 379.193 235.515,379.452 235.200,379.647 235.200 C 379.841 235.200,380.000 234.840,380.000 234.400 C 380.000 233.960,380.180 233.600,380.400 233.600 C 380.620 233.600,380.800 233.364,380.800 233.075 C 380.800 232.787,381.160 232.164,381.600 231.692 C 382.040 231.220,382.400 230.556,382.400 230.217 C 382.400 229.878,382.580 229.600,382.800 229.600 C 383.020 229.600,383.200 229.240,383.200 228.800 C 383.200 228.360,383.380 228.000,383.600 228.000 C 383.820 228.000,384.000 227.730,384.000 227.400 C 384.000 227.070,384.180 226.800,384.400 226.800 C 384.620 226.800,384.800 226.530,384.800 226.200 C 384.800 225.870,384.980 225.600,385.200 225.600 C 385.420 225.600,385.600 225.255,385.600 224.833 C 385.600 224.412,385.735 224.007,385.900 223.933 C 386.276 223.766,387.575 221.636,387.871 220.700 C 387.993 220.315,388.252 220.000,388.447 220.000 C 388.641 220.000,388.800 219.640,388.800 219.200 C 388.800 218.760,388.980 218.400,389.200 218.400 C 389.420 218.400,389.600 218.130,389.600 217.800 C 389.600 217.470,389.736 217.200,389.902 217.200 C 390.069 217.200,390.459 216.615,390.770 215.900 C 391.081 215.185,391.440 214.510,391.568 214.400 C 391.954 214.067,393.234 211.847,393.471 211.100 C 393.593 210.715,393.852 210.400,394.047 210.400 C 394.241 210.400,394.400 210.040,394.400 209.600 C 394.400 209.160,394.580 208.800,394.800 208.800 C 395.020 208.800,395.200 208.564,395.200 208.275 C 395.200 207.987,395.560 207.364,396.000 206.892 C 396.440 206.420,396.800 205.756,396.800 205.417 C 396.800 205.078,396.980 204.800,397.200 204.800 C 397.420 204.800,397.600 204.440,397.600 204.000 C 397.600 203.560,397.750 203.200,397.932 203.200 C 398.115 203.200,398.520 202.705,398.832 202.100 C 399.144 201.495,399.551 200.889,399.736 200.754 C 400.027 200.541,399.410 198.999,398.795 198.400 C 398.682 198.290,398.158 197.345,397.632 196.300 C 397.105 195.255,396.523 194.400,396.337 194.400 C 396.152 194.400,396.000 194.055,396.000 193.633 C 396.000 193.212,395.865 192.807,395.700 192.733 C 395.324 192.566,394.025 190.436,393.729 189.500 C 393.607 189.115,393.348 188.800,393.153 188.800 C 392.959 188.800,392.800 188.440,392.800 188.000 C 392.800 187.560,392.641 187.200,392.447 187.200 C 392.252 187.200,391.993 186.885,391.871 186.500 C 391.654 185.815,390.396 183.596,390.000 183.200 C 389.604 182.804,388.346 180.585,388.129 179.900 C 388.007 179.515,387.748 179.200,387.553 179.200 C 387.359 179.200,387.200 178.855,387.200 178.433 C 387.200 178.012,387.065 177.607,386.900 177.533 C 386.524 177.366,385.225 175.236,384.929 174.300 C 384.807 173.915,384.548 173.600,384.353 173.600 C 384.159 173.600,384.000 173.322,384.000 172.983 C 384.000 172.644,383.640 171.980,383.200 171.508 C 382.760 171.036,382.400 170.413,382.400 170.125 C 382.400 169.836,382.220 169.600,382.000 169.600 C 381.780 169.600,381.600 169.240,381.600 168.800 C 381.600 168.360,381.441 168.000,381.247 168.000 C 381.052 168.000,380.793 167.685,380.671 167.300 C 380.434 166.553,379.154 164.333,378.768 164.000 C 378.640 163.890,378.281 163.215,377.970 162.500 C 377.659 161.785,377.269 161.200,377.102 161.200 C 376.936 161.200,376.800 160.930,376.800 160.600 C 376.800 160.270,376.620 160.000,376.400 160.000 C 376.180 160.000,376.000 159.640,376.000 159.200 C 376.000 158.760,375.841 158.400,375.647 158.400 C 375.452 158.400,375.193 158.085,375.071 157.700 C 374.775 156.764,373.476 154.634,373.100 154.467 C 372.935 154.393,372.800 154.003,372.800 153.600 C 372.800 153.197,372.665 152.807,372.500 152.733 C 372.124 152.566,370.825 150.436,370.529 149.500 C 370.407 149.115,370.148 148.800,369.953 148.800 C 369.759 148.800,369.600 148.440,369.600 148.000 C 369.600 147.560,369.450 147.200,369.268 147.200 C 369.085 147.200,368.680 146.705,368.368 146.100 C 368.056 145.495,367.709 144.910,367.595 144.800 C 367.482 144.690,366.958 143.745,366.432 142.700 C 365.905 141.655,365.323 140.800,365.137 140.800 C 364.952 140.800,364.800 140.455,364.800 140.033 C 364.800 139.612,364.665 139.207,364.500 139.133 C 364.124 138.966,362.825 136.836,362.529 135.900 C 362.407 135.515,362.148 135.200,361.953 135.200 C 361.759 135.200,361.600 134.840,361.600 134.400 C 361.600 133.960,361.441 133.600,361.247 133.600 C 361.052 133.600,360.793 133.285,360.671 132.900 C 360.451 132.204,359.187 129.982,358.795 129.600 C 358.682 129.490,358.158 128.545,357.632 127.500 C 357.105 126.455,356.523 125.600,356.337 125.600 C 356.152 125.600,356.000 125.255,356.000 124.833 C 356.000 124.412,355.865 124.007,355.700 123.933 C 355.324 123.766,354.025 121.636,353.729 120.700 C 353.607 120.315,353.348 120.000,353.153 120.000 C 352.959 120.000,352.800 119.640,352.800 119.200 C 352.800 118.760,352.641 118.400,352.447 118.400 C 352.252 118.400,351.993 118.085,351.871 117.700 C 351.654 117.015,350.396 114.796,350.000 114.400 C 349.604 114.004,348.346 111.785,348.129 111.100 C 348.007 110.715,347.748 110.400,347.553 110.400 C 347.359 110.400,347.200 110.055,347.200 109.633 C 347.200 109.212,347.065 108.807,346.900 108.733 C 346.524 108.566,345.225 106.436,344.929 105.500 C 344.807 105.115,344.548 104.800,344.353 104.800 C 344.159 104.800,344.000 104.522,344.000 104.183 C 344.000 103.844,343.640 103.180,343.200 102.708 C 342.760 102.236,342.400 101.613,342.400 101.325 C 342.400 101.036,342.220 100.800,342.000 100.800 C 341.780 100.800,341.600 100.440,341.600 100.000 C 341.600 99.560,341.441 99.200,341.247 99.200 C 341.052 99.200,340.793 98.885,340.671 98.500 C 340.434 97.753,339.154 95.533,338.768 95.200 C 338.640 95.090,338.281 94.415,337.970 93.700 C 337.659 92.985,337.269 92.400,337.102 92.400 C 336.936 92.400,336.800 92.130,336.800 91.800 C 336.800 91.470,336.620 91.200,336.400 91.200 C 336.180 91.200,336.000 90.855,336.000 90.433 C 336.000 90.012,335.865 89.607,335.700 89.533 C 335.324 89.366,334.025 87.236,333.729 86.300 C 333.607 85.915,333.348 85.600,333.153 85.600 C 332.959 85.600,332.800 85.240,332.800 84.800 C 332.800 84.360,332.620 84.000,332.400 84.000 C 332.180 84.000,332.000 83.764,332.000 83.475 C 332.000 83.187,331.640 82.564,331.200 82.092 C 330.760 81.620,330.400 80.956,330.400 80.617 C 330.400 80.278,330.241 80.000,330.047 80.000 C 329.852 80.000,329.593 79.685,329.471 79.300 C 329.254 78.615,327.996 76.396,327.600 76.000 C 327.400 75.800,325.869 72.990,325.040 71.303 C 324.798 70.810,324.465 70.405,324.300 70.403 C 324.135 70.401,324.000 70.122,324.000 69.783 C 324.000 69.444,323.640 68.780,323.200 68.308 C 322.760 67.836,322.400 67.213,322.400 66.925 C 322.400 66.636,322.220 66.400,322.000 66.400 C 321.780 66.400,321.600 66.040,321.600 65.600 C 321.600 65.160,321.441 64.800,321.247 64.800 C 321.052 64.800,320.793 64.485,320.671 64.100 C 320.451 63.404,319.187 61.182,318.795 60.800 C 318.682 60.690,318.158 59.745,317.632 58.700 C 317.105 57.655,316.523 56.800,316.337 56.800 C 316.152 56.800,316.000 56.440,316.000 56.000 C 316.000 55.560,315.841 55.200,315.647 55.200 C 315.452 55.200,315.193 54.885,315.071 54.500 C 314.775 53.564,313.476 51.434,313.100 51.267 C 312.935 51.193,312.800 50.788,312.800 50.367 C 312.800 49.945,312.620 49.600,312.400 49.600 C 312.180 49.600,312.000 49.364,312.000 49.075 C 312.000 48.787,311.640 48.164,311.200 47.692 C 310.760 47.220,310.400 46.571,310.400 46.250 C 310.400 45.929,310.265 45.607,310.100 45.533 C 309.724 45.366,308.425 43.236,308.129 42.300 C 308.007 41.915,307.748 41.600,307.553 41.600 C 307.359 41.600,307.200 41.240,307.200 40.800 C 307.200 40.360,307.041 40.000,306.847 40.000 C 306.652 40.000,306.393 39.685,306.271 39.300 C 306.054 38.615,304.796 36.396,304.400 36.000 C 304.004 35.604,302.746 33.385,302.529 32.700 C 302.407 32.315,302.148 32.000,301.953 32.000 C 301.759 32.000,301.600 31.640,301.600 31.200 C 301.600 30.760,301.441 30.400,301.247 30.400 C 301.052 30.400,300.799 30.040,300.684 29.600 C 300.353 28.335,99.647 28.335,99.316 29.600 M299.939 34.800 C 300.915 36.450,302.026 38.340,302.407 39.000 C 305.430 44.231,309.423 51.103,312.400 56.200 C 315.282 61.135,315.508 61.523,318.800 67.200 C 320.395 69.950,322.015 72.740,322.400 73.400 C 322.785 74.060,324.405 76.850,326.000 79.600 C 329.292 85.277,329.518 85.665,332.400 90.600 C 335.282 95.535,335.508 95.923,338.800 101.600 C 340.395 104.350,342.015 107.140,342.400 107.800 C 342.785 108.460,344.405 111.250,346.000 114.000 C 349.292 119.677,349.518 120.065,352.400 125.000 C 355.282 129.935,355.508 130.323,358.800 136.000 C 360.395 138.750,362.015 141.540,362.400 142.200 C 362.785 142.860,364.405 145.650,366.000 148.400 C 369.292 154.077,369.518 154.465,372.400 159.400 C 375.282 164.335,375.508 164.723,378.800 170.400 C 380.395 173.150,382.015 175.940,382.400 176.600 C 382.785 177.260,384.405 180.050,386.000 182.800 C 389.512 188.856,389.747 189.261,392.406 193.800 C 393.565 195.780,394.860 198.035,395.284 198.812 L 396.055 200.224 392.379 206.612 C 390.357 210.125,388.388 213.540,388.003 214.200 C 387.618 214.860,386.356 217.020,385.200 219.000 C 384.044 220.980,382.784 223.140,382.400 223.800 C 382.016 224.460,380.756 226.620,379.600 228.600 C 378.444 230.580,377.182 232.740,376.797 233.400 C 376.412 234.060,374.434 237.480,372.400 241.000 C 370.366 244.520,368.388 247.940,368.003 248.600 C 367.618 249.260,366.356 251.420,365.200 253.400 C 364.044 255.380,362.784 257.540,362.400 258.200 C 362.016 258.860,360.756 261.020,359.600 263.000 C 358.444 264.980,357.182 267.140,356.797 267.800 C 356.412 268.460,354.434 271.880,352.400 275.400 C 350.366 278.920,348.388 282.340,348.003 283.000 C 347.618 283.660,346.356 285.820,345.200 287.800 C 344.044 289.780,342.784 291.940,342.400 292.600 C 342.016 293.260,340.756 295.420,339.600 297.400 C 338.444 299.380,337.182 301.540,336.797 302.200 C 336.412 302.860,334.434 306.280,332.400 309.800 C 330.366 313.320,328.388 316.740,328.003 317.400 C 327.618 318.060,326.356 320.220,325.200 322.200 C 324.044 324.180,322.784 326.340,322.400 327.000 C 322.016 327.660,320.756 329.820,319.600 331.800 C 318.444 333.780,317.182 335.940,316.797 336.600 C 316.412 337.260,314.434 340.680,312.400 344.200 C 310.366 347.720,308.388 351.140,308.003 351.800 C 307.618 352.460,306.356 354.620,305.200 356.600 C 304.044 358.580,302.786 360.740,302.405 361.400 C 302.025 362.060,300.915 363.950,299.939 365.600 L 298.164 368.600 200.000 368.600 L 101.836 368.600 100.061 365.600 C 99.085 363.950,97.975 362.060,97.595 361.400 C 97.214 360.740,95.956 358.580,94.800 356.600 C 91.918 351.665,91.692 351.277,88.400 345.600 C 85.539 340.665,84.720 339.250,83.251 336.700 C 82.840 335.985,81.556 333.780,80.400 331.800 C 79.244 329.820,77.984 327.660,77.600 327.000 C 77.216 326.340,75.956 324.180,74.800 322.200 C 71.918 317.265,71.692 316.877,68.400 311.200 C 65.539 306.265,64.720 304.850,63.251 302.300 C 62.840 301.585,61.556 299.380,60.400 297.400 C 59.244 295.420,57.984 293.260,57.600 292.600 C 57.216 291.940,55.956 289.780,54.800 287.800 C 51.918 282.865,51.692 282.477,48.400 276.800 C 45.539 271.865,44.720 270.450,43.251 267.900 C 42.840 267.185,41.556 264.980,40.400 263.000 C 39.244 261.020,37.984 258.860,37.600 258.200 C 37.216 257.540,35.956 255.380,34.800 253.400 C 31.918 248.465,31.692 248.077,28.400 242.400 C 25.539 237.465,24.720 236.050,23.251 233.500 C 22.840 232.785,21.556 230.580,20.400 228.600 C 19.244 226.620,17.984 224.460,17.600 223.800 C 17.216 223.140,15.956 220.980,14.800 219.000 C 11.918 214.065,11.692 213.677,8.400 208.000 C 6.805 205.250,5.147 202.382,4.716 201.626 C 3.814 200.048,3.608 200.608,7.594 193.800 C 10.253 189.261,10.488 188.856,14.000 182.800 C 15.595 180.050,17.215 177.260,17.600 176.600 C 17.985 175.940,19.605 173.150,21.200 170.400 C 24.492 164.723,24.718 164.335,27.600 159.400 C 30.482 154.465,30.708 154.077,34.000 148.400 C 35.595 145.650,37.215 142.860,37.600 142.200 C 37.985 141.540,39.605 138.750,41.200 136.000 C 44.492 130.323,44.718 129.935,47.600 125.000 C 50.482 120.065,50.708 119.677,54.000 114.000 C 55.595 111.250,57.215 108.460,57.600 107.800 C 57.985 107.140,59.605 104.350,61.200 101.600 C 64.492 95.923,64.718 95.535,67.600 90.600 C 70.482 85.665,70.708 85.277,74.000 79.600 C 75.595 76.850,77.215 74.060,77.600 73.400 C 77.985 72.740,79.605 69.950,81.200 67.200 C 84.492 61.523,84.718 61.135,87.600 56.200 C 90.765 50.781,90.437 51.346,97.595 39.000 C 100.490 34.006,101.366 32.536,101.708 32.099 C 102.020 31.700,122.001 31.619,200.132 31.699 L 298.164 31.800 299.939 34.800 " stroke="none" fill="#807b7b" fill-rule="evenodd"></path></g></svg>